<svg width="272" height="153" xmlns="http://www.w3.org/2000/svg" xmlns:xlink="http://www.w3.org/1999/xlink" xml:space="preserve" overflow="hidden"><defs><clipPath id="clip0"><rect x="504" y="161" width="272" height="153"/></clipPath></defs><g clip-path="url(#clip0)" transform="translate(-504 -161)"><path d="M-1536.41 5035.94C-1543.2 5034.74-1544.31 5034.32-1544.31 5032.8-1544.31 5032.28-1545.3 5031.41-1546.51 5030.91-1548.54 5030.06-1549.39 5030.16-1557.21 5032.25-1561.89 5033.5-1566.38 5034.87-1567.19 5035.29-1568.79 5036.14-1569.63 5036.01-1582.66 5033.2L-1589.73 5031.68-1592.96 5033.42C-1594.73 5034.4-1597.11 5035.19-1598.25 5035.19-1600.78 5035.19-1618.73 5026.33-1618.73 5025.09-1618.73 5024.61-1622.16 5022.52-1626.34 5020.48-1633.15 5017.15-1634.39 5016.75-1638.11 5016.75L-1642.28 5016.75-1645.64 5011.89C-1649.22 5006.69-1648.87 5006.89-1656.44 5005.84-1658.17 5005.6-1659.8 5005.07-1660.07 5004.65-1660.33 5004.25-1660.87 5001.71-1661.27 4999.02-1661.91 4994.59-1661.87 4994.02-1660.77 4992.93-1660.11 4992.28-1659.27 4991.73-1658.9 4991.73-1657.9 4991.73-1658.12 4988-1659.18 4986.93-1659.83 4986.28-1662.61 4985.83-1668.21 4985.51-1672.65 4985.26-1676.77 4984.79-1677.36 4984.46-1678.3 4983.96-1679.98 4979.86-1679.98 4978.07-1679.98 4977.72-1678.76 4976.6-1677.27 4975.63L-1674.56 4973.83-1678.94 4970.9-1683.31 4967.96-1682.89 4964.77-1682.47 4961.61-1685.34 4960.02C-1687.73 4958.7-1688.21 4958.1-1688.21 4956.48-1688.21 4954.72-1687.89 4954.42-1684.92 4953.42-1683.11 4952.83-1679.33 4951.83-1676.52 4951.18-1673.71 4950.56-1671.42 4949.81-1671.42 4949.51-1671.42 4949.22-1672.45 4948.2-1673.72 4947.22-1676.92 4944.79-1676.69 4943.52-1672.68 4941.65-1669.67 4940.23-1669.38 4939.91-1669.76 4938.41-1671.14 4932.89-1671.33 4933.29-1666.22 4931.02-1662.36 4929.33-1661.54 4928.71-1661.54 4927.44-1661.54 4925.42-1660.17 4924.8-1654.52 4924.22-1650.5 4923.83-1649.55 4923.48-1647.97 4921.83-1646.95 4920.79-1644.96 4919.59-1643.54 4919.22-1640.97 4918.52-1640.96 4918.52-1641.28 4915.66-1641.46 4914.09-1641.42 4912.53-1641.2 4912.18-1640.98 4911.85-1638.55 4911.06-1635.81 4910.46L-1630.83 4909.36-1625.72 4911.43-1620.62 4913.5-1615.79 4911.38-1610.97 4909.29-1611.31 4906.73C-1611.59 4904.61-1611.43 4904.09-1610.42 4903.71-1609.74 4903.49-1606.96 4902.42-1604.24 4901.35-1600.16 4899.73-1598.7 4899.46-1595.89 4899.78-1593.18 4900.1-1591.68 4899.85-1588.64 4898.61-1580.7 4895.37-1563.87 4892.29-1554.19 4892.29-1543.95 4892.29-1525.66 4895.67-1518.29 4898.93-1514.38 4900.65-1502.35 4907.45-1496.89 4911.03-1493.59 4913.17-1491.7 4913.92-1488.66 4914.29-1486.37 4914.59-1484.15 4915.29-1483.39 4915.96-1482.15 4917.08-1469.96 4919.3-1465.18 4919.27-1464.22 4919.27-1460.07 4920.57-1455.96 4922.16L-1448.48 4925.02-1447.56 4928.01C-1446.67 4930.92-1446.55 4931.02-1442.55 4932.09-1438.44 4933.21-1435.64 4935.6-1435.64 4937.99-1435.64 4938.51-1437.27 4940.23-1439.26 4941.8-1441.25 4943.34-1442.88 4944.81-1442.88 4945.03-1442.88 4946.53-1440.21 4947.12-1432.19 4947.42-1424.7 4947.7-1423.15 4947.95-1421.32 4949.14-1418.57 4950.96-1418.57 4952.8-1421.32 4955.79-1423.06 4957.68-1424.25 4958.28-1427.73 4958.97-1431.08 4959.65-1432.17 4960.17-1432.78 4961.39-1433.97 4963.78-1433.3 4964.42-1428.66 4965.35-1423.79 4966.32-1422.84 4967.29-1422.21 4971.97-1421.42 4977.79-1421.89 4978.31-1430.72 4981.65-1435.06 4983.29-1438.83 4984.84-1439.1 4985.08-1439.37 4985.33-1437.63 4986.25-1435.24 4987.15-1430.56 4988.87-1429.39 4990.06-1428.72 4993.75-1428.32 4995.94-1428.46 4996.21-1431.01 4997.88-1433.29 4999.4-1433.65 4999.92-1433.23 5001.14-1431.96 5004.85-1432.51 5006.27-1435.97 5008.23L-1439.26 5010.1-1446.83 5008.16C-1455.34 5005.99-1456 5005.92-1458.26 5006.94L-1459.88 5007.69-1458.3 5011.07C-1455.31 5017.49-1456.29 5018.46-1466.27 5018.91-1470.89 5019.11-1472.99 5019.54-1475.81 5020.88-1477.8 5021.83-1482.1 5023.67-1485.35 5025.01-1491.14 5027.4-1491.39 5027.45-1497.35 5027.03-1500.69 5026.8-1503.84 5026.46-1504.35 5026.26-1504.95 5026.03-1506.21 5027.25-1507.9 5029.72L-1510.52 5033.55-1516.38 5033.57C-1521.47 5033.6-1522.7 5033.82-1525.68 5035.39-1527.57 5036.36-1529.35 5037.13-1529.63 5037.11-1529.92 5037.06-1532.96 5036.54-1536.41 5035.94Z" fill="#B4E300" fill-opacity="0.360784" transform="matrix(1 0 0 1.00135 2194.78 -4737.87)"/><path d="M-1536.82 5035.52C-1540.97 5034.64-1542.74 5033.92-1543.74 5032.75-1546.42 5029.59-1547.7 5029.52-1556.99 5031.98-1561.67 5033.23-1566.17 5034.62-1567 5035.09-1568.28 5035.79-1569.61 5035.69-1575.57 5034.4-1591.03 5031.04-1589.2 5031.18-1592.77 5033.13-1594.53 5034.07-1596.88 5034.87-1597.99 5034.87-1600.6 5034.87-1617.85 5026.48-1617.85 5025.24-1617.85 5024.69-1621.23 5022.62-1625.88 5020.33-1633.18 5016.75-1634.26 5016.4-1637.8 5016.5-1639.94 5016.57-1641.88 5016.35-1642.12 5016-1642.36 5015.65-1643.81 5013.56-1645.35 5011.32-1646.88 5009.11-1648.51 5007.04-1648.97 5006.77-1649.42 5006.47-1651.8 5006.07-1654.26 5005.82-1656.71 5005.6-1658.89 5005.25-1659.1 5005.02-1659.73 5004.4-1661.29 4995.37-1660.93 4994.42-1660.74 4993.95-1659.83 4993.2-1658.91 4992.78-1657.41 4992.1-1657.28 4991.76-1657.67 4989.57-1658.3 4986.06-1659.44 4985.46-1665.64 4985.46-1668.59 4985.46-1672.35 4985.28-1673.98 4985.06-1676.55 4984.71-1677.1 4984.34-1678.03 4982.4-1679.7 4978.89-1679.42 4977.74-1676.47 4976.25-1675.02 4975.5-1673.83 4974.66-1673.83 4974.33-1673.83 4974.03-1675.76 4972.51-1678.13 4970.97L-1682.42 4968.18-1682 4965.02-1681.58 4961.86-1684.46 4960.07C-1686.04 4959.07-1687.53 4957.98-1687.77 4957.6-1688.92 4955.84-1686.75 4954.47-1680.75 4953.17-1674.95 4951.93-1670.54 4950.49-1670.54 4949.84-1670.54 4949.49-1671.58 4948.29-1672.84 4947.17-1674.11 4946.08-1675.15 4944.88-1675.15 4944.59-1675.15 4944.26-1673.67 4943.24-1671.86 4942.32-1668.32 4940.53-1668 4939.73-1669.58 4936.67-1670.14 4935.6-1670.44 4934.45-1670.25 4934.16-1670.06 4933.86-1667.97 4932.76-1665.6 4931.77-1661.97 4930.22-1661.22 4929.63-1660.78 4927.91-1660.27 4925.92-1660.14 4925.84-1654.9 4925.2-1650.47 4924.67-1649.22 4924.22-1647.67 4922.76-1646.65 4921.76-1644.63 4920.54-1643.19 4920.04-1640.64 4919.15-1640.57 4919.05-1640.57 4916.06-1640.57 4912.43-1640.16 4912.08-1634.69 4911.06-1630.87 4910.33-1630.45 4910.38-1625.59 4912.35L-1620.48 4914.39-1615.38 4912.13-1610.28 4909.89-1610.47 4907.3-1610.67 4904.73-1606.19 4903.17C-1603.73 4902.32-1600.9 4901.22-1599.89 4900.7-1598.44 4899.98-1597.56 4899.95-1595.53 4900.55-1593.28 4901.25-1592.5 4901.12-1588.52 4899.53-1586.06 4898.56-1581.8 4897.32-1579.05 4896.79-1576.3 4896.27-1572.43 4895.37-1570.43 4894.83-1565.73 4893.51-1548.52 4892.89-1542.56 4893.81-1540.09 4894.2-1535.2 4895.18-1531.7 4895.97-1526.53 4897.17-1525.65 4897.54-1527.07 4897.91-1528.09 4898.19-1530.88 4897.89-1533.85 4897.19-1538.78 4896-1548.04 4896.02-1548.04 4897.22-1548.04 4898.36-1535.71 4899.95-1535.26 4898.88-1535.07 4898.44-1534.77 4898.49-1534.4 4899.01-1533.67 4900.03-1521.7 4900.95-1521.7 4899.98-1521.7 4899.61-1522.07 4899.16-1522.52 4898.96-1522.97 4898.79-1522.7 4898.61-1521.92 4898.59-1519.97 4898.51-1506.98 4905.38-1497.38 4911.55-1492.86 4914.47-1491.15 4915.19-1488.16 4915.46-1485.94 4915.69-1483.96 4916.31-1483.16 4917.03-1482.15 4917.95-1479.52 4918.5-1472.35 4919.32-1464.43 4920.22-1461.66 4920.86-1455.59 4923.15L-1448.32 4925.89-1447.6 4928.85C-1446.9 4931.72-1446.79 4931.82-1443.18 4932.79-1439.33 4933.81-1436.08 4936.2-1436.08 4938.01-1436.08 4938.59-1437.71 4940.33-1439.7 4941.87-1445.85 4946.68-1444.76 4947.57-1431.89 4948.25-1424.22 4948.64-1422.57 4948.92-1421.52 4949.99-1420.84 4950.66-1419.98 4951.23-1419.62 4951.23-1419.25 4951.23-1418.96 4951.8-1418.96 4952.53-1418.96 4953.27-1419.33 4953.85-1419.78 4953.87-1420.23 4953.87-1421.07 4954.69-1421.65 4955.71-1422.51 4957.23-1423.54 4957.75-1427.57 4958.72-1432.79 4959.97-1433.42 4960.47-1433.44 4963.18-1433.45 4964.82-1433.1 4965.02-1428.77 4966.14-1423.36 4967.54-1422.77 4968.26-1422.5 4973.78-1422.27 4978.34-1422.39 4978.44-1431.47 4981.75-1440.19 4984.94-1440.11 4984.91-1439.87 4985.61-1439.76 4985.96-1437.59 4987.05-1435.07 4988.02-1430.71 4989.69-1430.44 4989.91-1429.56 4992.68-1428.66 4995.51-1428.68 4995.61-1430.38 4997.08-1431.34 4997.9-1432.55 4998.8-1433.07 4999.1-1433.85 4999.55-1433.88 5000.12-1433.24 5002.51-1432.5 5005.27-1432.53 5005.42-1434.44 5006.96-1437.96 5009.8-1438.07 5009.8-1453.34 5006.34-1455.77 5005.79-1456.81 5005.82-1458.12 5006.52-1460.19 5007.64-1460.19 5008.18-1458.14 5012.57-1456.51 5016.05-1456.51 5016.1-1457.79 5017.17-1458.69 5017.92-1461.05 5018.37-1465.53 5018.66-1470.59 5019.01-1472.89 5019.51-1476.26 5021-1478.61 5022.05-1483.16 5023.97-1486.38 5025.26-1491.91 5027.5-1492.43 5027.6-1496.26 5027-1506.23 5025.46-1505.26 5025.24-1508.04 5029.64L-1510.52 5033.55-1516.6 5033.55C-1521.87 5033.55-1523.07 5033.77-1525.55 5035.19-1528.86 5037.08-1529.35 5037.11-1536.82 5035.52ZM-1526.47 5034.05C-1524.93 5033.23-1523.68 5032.25-1523.68 5031.91-1523.7 5030.59-1527.99 5026.26-1529.53 5025.98-1531.15 5025.68-1542.77 5030.64-1542.77 5031.63-1542.77 5032.6-1541.12 5033.23-1535.53 5034.27-1532.45 5034.87-1529.78 5035.39-1529.6 5035.44-1529.42 5035.49-1528.01 5034.87-1526.47 5034.05ZM-1568.63 5031.16C-1568.82 5029.49-1569.37 5027.87-1569.85 5027.58-1570.33 5027.28-1572.68 5026.55-1575.06 5025.96-1579.32 5024.91-1579.47 5024.94-1583.64 5026.48-1589.64 5028.75-1589.53 5029.84-1583.14 5031.23-1580.32 5031.86-1576.38 5032.75-1574.39 5033.23-1568.3 5034.69-1568.23 5034.67-1568.63 5031.16ZM-1593.42 5031.73C-1591.53 5030.66-1590.19 5029.47-1590.19 5028.79-1590.19 5028.12-1592.21 5026.36-1595.3 5024.36-1600.11 5021.25-1600.65 5021.05-1604.76 5021.05-1608.03 5021.05-1610.08 5021.45-1612.93 5022.72-1615.16 5023.69-1616.49 5024.64-1616.14 5024.99-1614.86 5026.26-1599.65 5033.47-1598.19 5033.52-1597.34 5033.55-1595.19 5032.73-1593.42 5031.73ZM-1555.09 5029.92C-1550.69 5028.79-1550.64 5028.75-1551.8 5027.48-1552.45 5026.75-1553.75 5025.61-1554.7 5024.94-1556.38 5023.74-1556.5 5023.74-1561.94 5025.51-1567.09 5027.15-1567.45 5027.4-1567.24 5028.94-1566.74 5032.5-1566.14 5032.9-1562.69 5031.96-1560.97 5031.46-1557.55 5030.56-1555.09 5029.92ZM-1509.29 5028.84-1507.08 5025.46-1508.96 5023.94C-1512.94 5020.73-1513.18 5020.71-1519.34 5023.02-1522.47 5024.21-1525.19 5025.43-1525.39 5025.76-1525.59 5026.08-1524.77 5027.5-1523.56 5028.89-1521.3 5031.48-1520.06 5031.93-1514.45 5032.11-1511.58 5032.21-1511.42 5032.11-1509.29 5028.84ZM-1539.2 5027.5C-1536.64 5026.33-1534.39 5025.26-1534.21 5025.11-1534.03 5024.99-1535.07 5023.87-1536.52 5022.62-1538.44 5020.98-1539.86 5020.36-1541.78 5020.28L-1544.42 5020.16-1542.11 5019.91C-1540.01 5019.68-1539.47 5019.11-1535.99 5013.66L-1532.18 5007.69-1535.67 5002.41C-1537.58 4999.5-1539.34 4996.83-1539.57 4996.49-1540.01 4995.79-1550.02 5000.97-1550.02 5001.89-1550.02 5002.16-1549.43 5005.17-1548.71 5008.58-1547.99 5011.99-1547.4 5015.88-1547.39 5017.2-1547.39 5019.19-1547.12 5019.68-1545.9 5019.91-1544.65 5020.16-1544.7 5020.21-1546.26 5020.28-1548.22 5020.38-1553.31 5022.72-1553.31 5023.52-1553.31 5024.66-1546.4 5029.37-1544.47 5029.54-1544.14 5029.57-1541.77 5028.65-1539.2 5027.5ZM-1584.55 5025.24C-1580.71 5023.97-1579.84 5023.24-1579.54 5021.05-1579.36 5019.68-1579.86 5019.11-1582.62 5017.59-1584.43 5016.6-1586.76 5015.78-1587.81 5015.78-1589.55 5015.75-1596.31 5019.09-1597.08 5020.33-1597.44 5020.9-1589.69 5026.28-1588.5 5026.31-1588.11 5026.31-1586.33 5025.81-1584.55 5025.24ZM-1563.9 5024.44C-1561.94 5023.82-1560.24 5023.02-1560.12 5022.67-1560.01 5022.32-1561.59 5020.88-1563.64 5019.49-1567.12 5017.12-1567.6 5017-1570.73 5017.37-1575.19 5017.94-1577.16 5019.01-1577.74 5021.2-1578.31 5023.32-1577.94 5023.62-1573.42 5024.71-1569.04 5025.78-1568.11 5025.76-1563.9 5024.44ZM-1487.57 5024.07C-1485.64 5023.24-1484.06 5022.32-1484.05 5022.02-1484.03 5021.73-1487.07 5019.63-1490.8 5017.37L-1497.57 5013.29-1504.2 5015.63C-1513.22 5018.79-1513.35 5018.96-1508.89 5021.9-1506.07 5023.77-1504.24 5024.46-1500.8 5024.91-1493.62 5025.83-1491.28 5025.68-1487.57 5024.07ZM-1522.03 5022.3C-1519.13 5021.18-1516.24 5020.11-1515.61 5019.91-1513.8 5019.36-1514.24 5018.46-1516.92 5017.25-1518.28 5016.62-1521.85 5014.56-1524.85 5012.64-1527.85 5010.75-1530.52 5009.18-1530.78 5009.18-1531.18 5009.18-1536.81 5017.64-1537.38 5019.11-1537.78 5020.13-1531.29 5024.29-1529.27 5024.31-1528.19 5024.31-1524.93 5023.42-1522.03 5022.3ZM-1613.22 5021.03C-1610.28 5019.51-1610.19 5019.19-1611.64 5014.93-1612.77 5011.62-1612.84 5011.59-1619.94 5010.77-1623.46 5010.38-1623.92 5010.5-1627.68 5012.81-1629.88 5014.18-1631.68 5015.4-1631.68 5015.53-1631.68 5016.12-1618.66 5022.27-1617.33 5022.32-1616.5 5022.35-1614.65 5021.75-1613.22 5021.03ZM-1552.29 5020.53C-1549.01 5018.94-1548.65 5018.56-1548.96 5017.1-1549.15 5016.17-1549.8 5012.62-1550.4 5009.18-1550.99 5005.75-1551.76 5002.63-1552.09 5002.26-1552.43 5001.89-1554.95 5001.29-1557.69 5000.89-1563.48 5000.07-1563.09 4999.7-1564.83 5007.86-1565.41 5010.57-1566.03 5013.29-1566.21 5013.88-1566.44 5014.66-1565.13 5016.08-1561.83 5018.66-1559.24 5020.68-1556.87 5022.35-1556.55 5022.35-1556.23 5022.35-1554.32 5021.53-1552.29 5020.53ZM-1473.98 5017.79C-1473.76 5017.44-1474.56 5015.15-1475.74 5012.71-1477.76 5008.58-1478.12 5008.21-1481.27 5007.09L-1484.64 5005.87-1490.36 5008.56C-1493.51 5010.05-1495.99 5011.52-1495.88 5011.82-1495.77 5012.14-1492.28 5014.46-1488.12 5016.97L-1480.55 5021.55-1477.46 5019.98C-1475.76 5019.14-1474.2 5018.14-1473.98 5017.79ZM-1595.95 5017.37C-1593.87 5016.08-1592.17 5014.81-1592.17 5014.56-1592.17 5014.11-1607.33 5011.1-1609.46 5011.15-1610.87 5011.17-1610.87 5011.2-1609.51 5015.5-1608.33 5019.26-1608.15 5019.36-1603.03 5019.61-1600.25 5019.73-1599.16 5019.39-1595.95 5017.37ZM-1568.79 5015C-1568.65 5014.86-1567.75 5011.25-1566.79 5006.96L-1565.05 4999.2-1566.83 4996.63C-1567.81 4995.22-1568.95 4993.8-1569.36 4993.47-1570.02 4992.95-1584.14 4994.34-1584.79 4994.99-1584.97 4995.17-1588.11 5012.34-1588.21 5013.61-1588.21 5013.71-1587.84 5013.79-1587.39 5013.79-1586.94 5013.79-1584.8 5014.63-1582.63 5015.65L-1578.7 5017.49-1573.87 5016.37C-1571.22 5015.75-1568.93 5015.13-1568.79 5015ZM-1506.18 5014.48C-1502.3 5013.06-1498.84 5011.59-1498.48 5011.25-1497.78 5010.55-1497.93 5010.03-1500.85 5002.76-1501.76 5000.49-1502.27 4998.65-1502 4998.65-1501.72 4998.65-1501.09 4999.9-1500.6 5001.44-1499.44 5005.07-1497.35 5009.18-1496.65 5009.18-1495.35 5009.18-1486.13 5004.5-1486.13 5003.83-1486.13 5003.03-1488.8 4991.46-1490.49 4984.94L-1491.56 4980.8-1496.24 4981-1500.92 4981.18-1502.62 4985.61C-1503.56 4988.05-1504.52 4990.24-1504.75 4990.46-1504.99 4990.71-1504.79 4991.68-1504.31 4992.63-1503.83 4993.57-1503.26 4995.24-1503.05 4996.34-1502.68 4998.18-1502.71 4998.18-1503.63 4996.01-1505.41 4991.78-1505.49 4991.71-1509.12 4991.9-1515.48 4992.25-1515.24 4991.9-1516.98 5003.48-1517.82 5009.13-1518.32 5014.06-1518.08 5014.43-1517.84 5014.83-1516.71 5015.55-1515.56 5016.05-1514.41 5016.55-1513.41 5017-1513.35 5017.02-1513.28 5017.05-1510.05 5015.9-1506.18 5014.48ZM-1459.14 5016.45C-1458.31 5015.93-1458.43 5015.3-1459.96 5012.17L-1461.75 5008.51-1468.34 5008.51C-1471.97 5008.51-1474.94 5008.78-1474.94 5009.11-1474.94 5009.45-1474.3 5011.37-1473.53 5013.39L-1472.12 5017.07-1466.12 5017.07C-1462.82 5017.07-1459.68 5016.8-1459.14 5016.45ZM-1630.3 5012.32C-1628.02 5010.77-1626.06 5009.21-1625.95 5008.83-1625.83 5008.43-1626.71 5007.09-1627.89 5005.79-1629.74 5003.78-1630.58 5003.38-1634 5003.01-1637.4 5002.63-1638.58 5002.81-1642.23 5004.28-1644.58 5005.25-1646.6 5006.12-1646.73 5006.24-1646.97 5006.47-1643.34 5012.02-1641.69 5013.96-1641 5014.76-1639.73 5015.1-1637.57 5015.1-1634.97 5015.1-1633.73 5014.63-1630.3 5012.32ZM-1519.07 5004.18C-1517.2 4992.05-1517.16 4992.38-1521.47 4986.83L-1525.2 4982.02-1528.42 4982.47C-1530.19 4982.7-1532.73 4983.24-1534.06 4983.69-1536.4 4984.44-1536.53 4984.66-1537.63 4989.39L-1538.77 4994.32-1534.96 5000.27C-1531.62 5005.47-1530.49 5006.64-1525.97 5009.65-1523.13 5011.57-1520.71 5013.01-1520.6 5012.91-1520.48 5012.79-1519.79 5008.86-1519.07 5004.18ZM-1589.93 5011.32C-1589.74 5010.67-1588.99 5006.64-1588.27 5002.33-1586.81 4993.75-1586.67 4994.52-1590.85 4988.25-1592.64 4985.56-1593.45 4984.86-1594.47 4985.11-1595.2 4985.31-1597.3 4985.46-1599.15 4985.46L-1602.5 4985.46-1605.35 4990.74C-1608.14 4995.94-1608.2 4996.16-1608.25 5002.61-1608.28 5006.54-1608.04 5009.18-1607.65 5009.21-1607.28 5009.23-1603.73 5009.95-1599.74 5010.8-1590.71 5012.69-1590.36 5012.71-1589.93 5011.3ZM-1609.69 5002.73C-1609.37 4999.02-1609.27 4995.81-1609.46 4995.61-1609.85 4995.22-1625.7 5002.29-1626.72 5003.28-1627.13 5003.7-1626.55 5004.75-1625.05 5006.24-1622.51 5008.78-1619.08 5009.8-1613.57 5009.6L-1610.28 5009.5ZM-1436.32 5006.49C-1433.82 5004.95-1433.72 5004.6-1435.08 5001.96-1435.9 5000.37-1436.58 5000.02-1439.52 4999.65-1441.43 4999.42-1445.48 4998.78-1448.51 4998.23-1451.55 4997.68-1454.46 4997.41-1454.97 4997.61-1455.64 4997.85-1455.85 4998.85-1455.71 5001.07L-1455.51 5004.18-1448.59 5005.94C-1440.04 5008.16-1439.09 5008.21-1436.32 5006.49ZM-1459.26 5005.45C-1457.24 5004.55-1457.1 5004.28-1457.28 5001.71-1457.53 4998.35-1458.13 4998.18-1468.74 4998.05L-1476.04 4997.98-1479.77 5000.64C-1481.82 5002.11-1483.5 5003.55-1483.5 5003.85-1483.5 5004.15-1481.94 5004.97-1480.04 5005.7-1477.14 5006.77-1475.36 5006.94-1469.01 5006.72-1464.26 5006.54-1460.62 5006.07-1459.26 5005.45ZM-1645.19 5003.6C-1643.37 5002.71-1641.52 5001.96-1641.07 5001.96-1639.91 5001.91-1640.04 5000.22-1641.36 4998.13-1641.98 4997.13-1642.53 4996.26-1642.59 4996.16-1642.65 4996.06-1645.78 4995.37-1649.54 4994.64-1654.76 4993.62-1656.75 4993.47-1657.94 4994.02-1659.43 4994.69-1659.49 4994.94-1659.05 4998.83-1658.8 5001.09-1658.34 5003.18-1658.03 5003.5-1657.56 5003.98-1655.46 5004.35-1649.14 5005.12-1648.77 5005.17-1646.99 5004.48-1645.19 5003.6ZM-1625.4 5000.47C-1622.49 4999.05-1622.39 4998.9-1622.77 4996.68-1623.74 4991.03-1623.88 4990.69-1624.99 4991.01-1625.59 4991.18-1628.16 4991.53-1630.69 4991.78-1634.81 4992.2-1639.72 4993.95-1640.57 4995.34-1640.74 4995.61-1640.01 4997.03-1638.94 4998.5-1636.98 5001.24-1636.17 5001.54-1630.55 5001.84-1629.38 5001.89-1627.06 5001.26-1625.4 5000.47ZM-1480.24 4998.88C-1476.69 4996.21-1476.8 4996.56-1475.86 4985.31-1475.46 4980.36-1475.52 4980.03-1477.94 4974.93L-1480.44 4969.65-1483.12 4969.65C-1484.6 4969.65-1486.13 4969.88-1486.54 4970.15-1486.94 4970.42-1487.83 4972.79-1488.5 4975.43-1489.72 4980.21-1489.72 4980.26-1488.28 4985.96-1487.49 4989.12-1486.36 4993.87-1485.77 4996.49-1485.19 4999.12-1484.43 5001.26-1484.09 5001.26-1483.74 5001.26-1482.01 5000.17-1480.24 4998.85ZM-1546 4997.16C-1540.28 4994.12-1539.89 4993.5-1539.11 4986.45L-1538.74 4983.17-1542.42 4979.98-1546.1 4976.8-1553.49 4978.51C-1557.56 4979.46-1561.48 4980.48-1562.21 4980.8-1563 4981.13-1564.43 4983.37-1565.76 4986.4-1568.21 4992-1568.16 4992.48-1564.57 4996.63-1562.88 4998.58-1561.38 4998.97-1552.1 4999.87-1551.62 4999.92-1548.87 4998.7-1546 4997.16ZM-1432.82 4997.01C-1430.39 4995.49-1430.27 4995.27-1430.83 4993.3-1431.55 4990.81-1430.86 4991.31-1436.37 4989.14L-1440.94 4987.35-1446.9 4989.47C-1453.2 4991.71-1453.84 4992.18-1453.85 4994.47-1453.86 4995.74-1453.39 4995.96-1450.08 4996.36-1447.99 4996.63-1444.21 4997.21-1441.68 4997.66-1435.36 4998.8-1435.7 4998.83-1432.82 4997.01ZM-1614.09 4994.89C-1608.97 4992.58-1608.57 4992.25-1606.68 4988.69-1605.58 4986.65-1604.68 4984.64-1604.68 4984.24-1604.68 4983.84-1605.87 4980.98-1607.33 4977.87-1610.21 4971.69-1609.95 4971.87-1615.22 4973.34-1615.81 4973.49-1617.33 4976.87-1618.99 4981.67-1621.69 4989.52-1622.05 4992.4-1620.78 4996.49-1620.42 4997.68-1620.1 4997.61-1614.09 4994.89ZM-1455.82 4995.32C-1454.31 4992.48-1455.22 4991.46-1461.88 4988.47-1465.39 4986.9-1469.34 4984.79-1470.66 4983.77-1473.72 4981.45-1474.22 4982.1-1474.38 4988.59-1474.44 4991.21-1474.52 4993.9-1474.55 4994.52-1474.6 4995.49-1473.83 4995.74-1470 4996.06-1467.46 4996.26-1463.4 4996.49-1460.97 4996.54-1457.11 4996.66-1456.45 4996.49-1455.82 4995.32ZM-1640.21 4993.03C-1639.14 4992.48-1638.27 4991.76-1638.27 4991.43-1638.27 4991.11-1639.97 4989.47-1642.06 4987.8-1645.64 4984.91-1646.01 4984.76-1648.92 4985.11-1650.61 4985.33-1652.91 4985.81-1654.02 4986.21-1655.76 4986.8-1656.05 4987.25-1656.05 4989.17-1656.05 4991.76-1656.01 4991.78-1649.42 4993-1642.88 4994.2-1642.46 4994.2-1640.21 4993.03ZM-1576.66 4991.83C-1573.38 4991.36-1570.39 4990.79-1570.01 4990.56-1569.63 4990.31-1568.35 4987.9-1567.17 4985.21L-1565.02 4980.28-1568.47 4974.98-1571.92 4969.65-1577.64 4969.65-1583.36 4969.65-1587.11 4976.32C-1589.17 4979.98-1590.85 4983.39-1590.85 4983.92-1590.85 4984.44-1589.65 4986.65-1588.19 4988.79-1585.2 4993.2-1585.64 4993.1-1576.66 4991.83ZM-1632.29 4982.82C-1632.07 4978.66-1632.02 4974.95-1632.17 4974.61-1632.31 4974.23-1633.28 4973.26-1634.32 4972.44L-1636.2 4970.95-1640.79 4977.67-1645.38 4984.39-1641.33 4987.55C-1638.05 4990.09-1636.84 4990.66-1634.98 4990.56L-1632.67 4990.41ZM-1508.94 4989.84C-1505.74 4989.09-1505.73 4989.07-1504.14 4984.64L-1502.54 4980.18-1505.63 4975.85C-1507.33 4973.46-1509.13 4971.37-1509.63 4971.17-1510.13 4970.97-1512.82 4971.07-1515.62 4971.39-1520.57 4971.94-1520.73 4972.02-1521.83 4974.28-1524.31 4979.36-1524.16 4980.28-1519.95 4985.73-1515.69 4991.26-1515.37 4991.38-1508.94 4989.84ZM-1447.9 4988.02C-1444.66 4986.88-1442.01 4985.71-1442.01 4985.41-1442.01 4985.08-1444.23 4982.94-1446.96 4980.63-1451.49 4976.75-1452.22 4976.37-1455.68 4976.02-1457.76 4975.8-1460.39 4975.45-1461.53 4975.23L-1463.61 4974.8-1464.69 4979.56C-1465.28 4982.17-1465.63 4984.46-1465.45 4984.64-1465.13 4984.96-1454.38 4990.06-1453.99 4990.06-1453.89 4990.06-1451.14 4989.14-1447.9 4988.02ZM-1623.7 4988.2C-1623.48 4987.97-1622.16 4984.49-1620.77 4980.48L-1618.25 4973.21-1619.75 4970.77C-1620.58 4969.43-1621.61 4968.33-1622.06 4968.33-1622.5 4968.33-1624.38 4969.6-1626.24 4971.15L-1629.63 4973.93-1629.67 4981.72-1629.71 4989.54-1626.91 4989.07C-1625.37 4988.82-1623.92 4988.42-1623.7 4988.2ZM-1647.11 4980.6C-1647.78 4977.27-1648.5 4976.9-1654.51 4976.9-1658.88 4976.9-1660.12 4977.12-1660.43 4977.92-1661.04 4979.51-1659.33 4984.71-1658.12 4984.96-1657.52 4985.11-1654.72 4984.61-1651.88 4983.86-1646.75 4982.55-1646.73 4982.52-1647.11 4980.6ZM-1661.73 4982.35C-1662.8 4977.94-1663 4977.74-1667.42 4976.97-1672.95 4976.02-1673.14 4976.02-1675.65 4977.57-1677.73 4978.84-1677.77 4978.94-1676.92 4981-1676.12 4982.97-1675.75 4983.19-1672.47 4983.54-1670.51 4983.77-1667.18 4983.99-1665.09 4984.04L-1661.3 4984.14ZM-1591.86 4980.88C-1591.06 4979.58-1589.14 4976.17-1587.58 4973.29L-1584.76 4968.01-1587.31 4962.78-1589.86 4957.53-1595.13 4957.68C-1599.86 4957.83-1600.53 4958-1601.68 4959.47-1603.43 4961.69-1607.97 4970.1-1607.98 4971.12-1607.98 4971.59-1606.73 4974.58-1605.2 4977.77L-1602.43 4983.57-1597.87 4983.37C-1593.45 4983.19-1593.27 4983.12-1591.86 4980.88ZM-1432.95 4980.75C-1428.88 4979.26-1425.54 4977.82-1425.54 4977.54-1425.54 4977.29-1426.95 4976.77-1428.67 4976.4-1445.66 4972.74-1445.1 4972.81-1447.24 4973.91-1448.35 4974.48-1449.23 4975.33-1449.21 4975.77-1449.17 4976.5-1441.47 4983.49-1440.69 4983.49-1440.51 4983.49-1437.03 4982.27-1432.95 4980.75ZM-1466.58 4979.16C-1466.12 4977.37-1465.74 4975.25-1465.73 4974.43-1465.72 4973.61-1467.51 4969.35-1469.69 4965-1473.63 4957.16-1473.7 4957.06-1475.79 4957.28L-1477.9 4957.48-1478.33 4962.73C-1478.75 4967.79-1478.67 4968.23-1476.39 4973.51-1474.49 4977.87-1473.46 4979.38-1471.35 4980.88-1469.88 4981.92-1468.4 4982.7-1468.05 4982.6-1467.71 4982.5-1467.05 4980.95-1466.58 4979.16ZM-1531.05 4981.1C-1528.62 4980.5-1526.31 4979.68-1525.92 4979.29-1525.53 4978.89-1524.57 4976.85-1523.8 4974.75L-1522.4 4970.97-1525.43 4964.75C-1528.74 4957.95-1527.84 4958.67-1536 4956.14-1536.44 4956.01-1538.59 4957.23-1540.77 4958.87L-1544.75 4961.86-1544.69 4968.88-1544.64 4975.92-1541.06 4979.04C-1539.1 4980.75-1537.04 4982.17-1536.48 4982.17-1535.92 4982.17-1533.48 4981.7-1531.05 4981.1ZM-1642.07 4975.75C-1638.17 4969.9-1637.99 4969.53-1636.37 4963.55-1634.52 4956.78-1634.51 4954.64-1636.33 4958.15-1637.08 4959.6-1638.15 4962.11-1638.72 4963.73-1639.83 4966.94-1643.98 4973.61-1644.87 4973.61-1645.17 4973.61-1646.11 4972.34-1646.95 4970.82-1648.66 4967.71-1650.08 4967.24-1655.19 4968.01L-1658.03 4968.43-1658.03 4971.37C-1658.03 4974.88-1657.79 4975.03-1651.1 4975.15-1646.35 4975.25-1646.14 4975.33-1646.48 4976.7-1646.86 4978.24-1646.33 4980.21-1645.53 4980.21-1645.25 4980.21-1643.7 4978.19-1642.07 4975.75ZM-1554.85 4977.17C-1550.92 4976.25-1547.52 4975.28-1547.28 4975.03-1547.04 4974.8-1546.74 4971.79-1546.62 4968.36L-1546.39 4962.13-1552.98 4960.02C-1556.6 4958.85-1560.08 4957.88-1560.7 4957.85-1561.7 4957.8-1568.23 4964.9-1569.77 4967.69-1570.41 4968.86-1564.19 4978.89-1562.82 4978.89-1562.36 4978.89-1558.77 4978.12-1554.85 4977.17ZM-1490.38 4975.1C-1489.8 4973.01-1489.19 4970.82-1489.03 4970.25-1488.85 4969.6-1490.75 4966.64-1493.7 4962.91-1499.02 4956.19-1498.63 4956.36-1503.73 4957.9-1505.49 4958.45-1505.92 4958.95-1506.24 4960.96-1506.46 4962.31-1506.87 4964.6-1507.15 4966.09-1507.77 4969.38-1507.32 4970.65-1503.92 4975.25L-1501.24 4978.89-1496.34 4978.89-1491.44 4978.89ZM-1661.03 4975.6C-1659.63 4975.08-1659.35 4974.53-1659.35 4972.46-1659.37 4967.96-1659.9 4967.81-1666.04 4970.6-1669.06 4971.97-1671.78 4973.34-1672.09 4973.61-1672.4 4973.91-1670.92 4974.48-1668.8 4974.9-1666.68 4975.33-1664.65 4975.77-1664.28 4975.9-1663.17 4976.3-1662.78 4976.27-1661.03 4975.6ZM-1457.49 4972.59C-1458.03 4971.34-1458.94 4969.2-1459.51 4967.86-1460.08 4966.49-1461.09 4964.2-1461.76 4962.73-1462.42 4961.29-1463.73 4958.33-1464.67 4956.16-1467.26 4950.14-1467.85 4949.24-1470.16 4947.82L-1472.3 4946.48-1472.3 4950.78C-1472.3 4954.82-1471.99 4955.74-1467.64 4964.52-1463.42 4973.04-1462.82 4973.93-1461.38 4973.76-1460.51 4973.63-1459.79 4973.86-1459.79 4974.21-1459.79 4974.88-1457.81 4975.53-1457 4975.1-1456.73 4974.98-1456.95 4973.83-1457.49 4972.59ZM-1423.86 4973.11C-1424.67 4968.51-1424.67 4968.53-1429.82 4967.39-1434.67 4966.29-1434.74 4966.29-1439.18 4967.91-1441.64 4968.78-1443.65 4969.9-1443.65 4970.37-1443.65 4970.92-1441.78 4971.67-1438.71 4972.39-1436 4973.01-1432 4973.96-1429.82 4974.51-1423.51 4976.02-1423.35 4976-1423.86 4973.11ZM-1449.24 4973.21C-1447.43 4972.27-1445.96 4971.39-1445.96 4971.29-1445.96 4971.17-1445.79 4970.65-1445.59 4970.12-1445.03 4968.66-1455.07 4962.51-1455.89 4963.78-1456.21 4964.3-1456.48 4964.5-1456.49 4964.23-1456.51 4963.08-1456.64 4962.71-1457.29 4961.91-1457.79 4961.31-1457.66 4961.09-1456.8 4961.09-1455.19 4961.09-1447.16 4956.33-1447.77 4955.74-1448.04 4955.49-1451.67 4954.62-1455.84 4953.85-1462.87 4952.53-1465.06 4951.75-1465.06 4950.58-1465.06 4950.34-1464.01 4948.92-1462.74 4947.42-1461.44 4945.9-1460.71 4944.54-1461.08 4944.31-1462.25 4943.59-1468.35 4943.12-1468.35 4943.74-1468.35 4944.06-1467.9 4944.98-1467.35 4945.76-1466.81 4946.55-1466.08 4948.62-1465.75 4950.39-1465.41 4952.15-1463.94 4956.16-1462.46 4959.27-1460.99 4962.41-1459.79 4965.17-1459.79 4965.42-1459.79 4966.39-1456.83 4972.02-1455.59 4973.44-1453.94 4975.33-1453.25 4975.3-1449.24 4973.21ZM-1666.74 4968.48C-1666.56 4967.91-1667.55 4967.69-1670.06 4967.69-1672.04 4967.69-1675.03 4967.49-1676.71 4967.26-1680.64 4966.71-1680.64 4967.61-1676.69 4970.17L-1673.63 4972.17-1670.32 4970.72C-1668.5 4969.93-1666.89 4968.93-1666.74 4968.48ZM-1627.07 4969.33C-1623.01 4966.02-1622.66 4965.1-1622.54 4957.68L-1622.46 4952.63-1626.58 4954.27C-1628.84 4955.19-1631.03 4956.06-1631.44 4956.26-1632.19 4956.56-1633.85 4961.84-1634.7 4966.59-1635.1 4968.88-1634.95 4969.3-1633.25 4970.7-1632.21 4971.54-1631.2 4972.27-1631.02 4972.27-1630.84 4972.29-1629.06 4970.97-1627.07 4969.33ZM-1606.33 4963.68C-1604.34 4960.17-1602.7 4956.86-1602.7 4956.36-1602.7 4955.84-1603.31 4953.62-1604.06 4951.41L-1605.42 4947.4-1610.68 4946.93C-1615.14 4946.53-1616.13 4946.63-1617.18 4947.57-1619.71 4949.86-1620.49 4952.75-1620.48 4959.87-1620.48 4966.69-1620.48 4966.69-1618.28 4969.1-1616.1 4971.47-1616.04 4971.49-1613.02 4970.8-1610.03 4970.12-1609.88 4969.95-1606.33 4963.68ZM-1643.15 4968.51C-1641.33 4964.27-1639.64 4959.12-1640.06 4959.12-1640.29 4959.12-1641.01 4959.62-1641.68 4960.22-1643.68 4962.03-1643.76 4960.77-1641.92 4956.16-1640.95 4953.75-1640.28 4951.43-1640.43 4951.01-1640.57 4950.58-1640.28 4949.24-1639.77 4948.02-1639.27 4946.8-1639.01 4945.66-1639.2 4945.46-1639.68 4944.98-1645.46 4946.65-1645.93 4947.4-1646.14 4947.75-1645.69 4948.69-1644.92 4949.49-1644.16 4950.31-1643.54 4951.23-1643.54 4951.58-1643.54 4951.9-1644.45 4951.08-1645.56 4949.71-1646.75 4948.27-1648.17 4947.25-1649.02 4947.25-1649.81 4947.25-1653.06 4948.34-1656.24 4949.71-1663.49 4952.8-1663.57 4953.75-1656.7 4955.26-1653.99 4955.86-1650.88 4956.41-1649.8 4956.43-1648.19 4956.51-1647.47 4957.11-1645.97 4959.57-1643.56 4963.55-1644.63 4965.02-1647.16 4961.21-1649.04 4958.38-1650.84 4957.68-1658.86 4956.76-1661.98 4956.38-1662.46 4956.51-1663.89 4958.05L-1665.46 4959.75-1662.94 4962.56C-1661.56 4964.1-1660.11 4965.59-1659.73 4965.84-1659.34 4966.09-1656.36 4966.14-1653.09 4965.94L-1647.16 4965.57-1646.06 4968.28C-1645.45 4969.75-1644.79 4970.97-1644.58 4970.97-1644.38 4970.97-1643.74 4969.88-1643.15 4968.51ZM-1511 4969.05C-1509.71 4968.58-1509.3 4967.71-1508.65 4964.2-1508.22 4961.86-1507.87 4959.52-1507.87 4958.97-1507.87 4958.08-1516.93 4951.21-1518.1 4951.21-1519.03 4951.21-1526.3 4957.5-1526.31 4958.3-1526.31 4958.77-1525.12 4961.51-1523.67 4964.4L-1521.02 4969.65-1516.79 4969.65C-1514.47 4969.65-1511.86 4969.4-1511 4969.05ZM-1480.93 4967.29C-1480.79 4967.16-1480.45 4964.6-1480.18 4961.61L-1479.7 4956.16-1484.76 4949.91C-1487.55 4946.45-1490.31 4943.57-1490.89 4943.44-1491.48 4943.34-1493.17 4943.57-1494.65 4943.96L-1497.33 4944.69-1497.32 4950.09-1497.32 4955.49-1492.4 4961.84-1487.49 4968.18-1484.34 4967.83C-1482.61 4967.66-1481.07 4967.41-1480.93 4967.29ZM-1567.57 4962.01-1563.06 4956.36-1564.28 4952.08C-1565.69 4947.1-1566.05 4946.85-1573.62 4946.05L-1578.64 4945.51-1583.43 4950.36C-1586.06 4953.02-1588.22 4955.61-1588.22 4956.14-1588.22 4956.93-1584.7 4964.75-1583.38 4966.86-1583.04 4967.41-1581.08 4967.69-1577.47 4967.69L-1572.08 4967.69-1567.57 4962.01ZM-1439.54 4966.22C-1435.8 4964.87-1435.38 4964.52-1435.01 4962.51-1434.52 4959.92-1434.77 4959.7-1440.44 4957.78L-1444.46 4956.43-1448.5 4958.85C-1450.73 4960.17-1452.54 4961.46-1452.54 4961.74-1452.54 4962.21-1444.68 4967.66-1443.98 4967.69-1443.8 4967.69-1441.8 4967.01-1439.54 4966.22ZM-1662.64 4965.84C-1662.64 4965.54-1663.75 4964.25-1665.11 4962.93L-1667.58 4960.54-1672.84 4961.11C-1675.74 4961.44-1678.63 4961.71-1679.27 4961.71-1680.04 4961.74-1680.42 4962.28-1680.42 4963.35-1680.42 4965.15-1678.95 4965.52-1670.54 4965.92-1668.19 4966.02-1665.44 4966.17-1664.45 4966.24-1663.45 4966.32-1662.64 4966.12-1662.64 4965.84ZM-1541.73 4957.65C-1539.77 4956.11-1538.16 4954.57-1538.16 4954.22-1538.16 4953.9-1538.94 4951.21-1539.9 4948.27L-1541.64 4942.92-1548.49 4941.13C-1552.25 4940.13-1555.7 4939.53-1556.13 4939.78-1558.64 4941.27-1563.84 4946.28-1563.83 4947.17-1563.81 4947.77-1563.25 4949.89-1562.58 4951.88L-1561.35 4955.49-1554.2 4957.93C-1550.27 4959.25-1546.66 4960.37-1546.18 4960.39-1545.7 4960.42-1543.7 4959.17-1541.73 4957.65ZM-1665.47 4957.33C-1662.76 4955.26-1662.88 4953.87-1665.93 4952.4-1668.18 4951.33-1668.45 4951.36-1676.7 4953.57-1687.71 4956.51-1687.99 4956.71-1684.21 4958.67-1682.43 4959.6-1680.85 4959.72-1674.89 4959.42-1668.49 4959.07-1667.47 4958.85-1665.47 4957.33ZM-1428.29 4957.36C-1424.26 4956.41-1423.31 4955.94-1422.53 4954.42-1420.64 4950.76-1421.43 4950.44-1434.93 4949.59L-1440.7 4949.24-1442.01 4951.38C-1442.73 4952.58-1443.32 4953.87-1443.32 4954.27-1443.32 4954.89-1435.87 4958.13-1433.78 4958.4-1433.41 4958.45-1430.94 4957.98-1428.29 4957.36ZM-1637.08 4953.67C-1635.14 4948.44-1634.84 4947.27-1635.44 4947.27-1635.95 4947.27-1639.62 4956.19-1639.6 4957.36-1639.57 4958.75-1638.23 4956.78-1637.08 4953.67ZM-1523.71 4953.17C-1519.22 4949.44-1519.19 4949.29-1520.99 4942.35-1522.16 4937.84-1522.26 4937.69-1525.07 4936.65-1531.33 4934.33-1531.5 4934.35-1535.96 4938.69L-1540.01 4942.59-1538.24 4948.34-1536.47 4954.09-1533.2 4955.24C-1531.4 4955.86-1529.43 4956.41-1528.81 4956.43-1528.2 4956.46-1525.9 4954.99-1523.71 4953.17ZM-1501.7 4955.61-1499.16 4954.84-1499.17 4951.23C-1499.18 4943.69-1498.75 4944.46-1505.97 4939.08-1509.64 4936.35-1513.05 4934.11-1513.56 4934.11-1514.96 4934.11-1520.35 4936.97-1520.33 4937.72-1520.33 4938.09-1519.65 4940.88-1518.82 4943.91L-1517.33 4949.44-1512.43 4952.95C-1507.3 4956.61-1506.03 4956.93-1501.7 4955.61ZM-1589.4 4954.29C-1588.57 4953.42-1586.13 4950.88-1583.98 4948.62L-1580.08 4944.54-1581.72 4939.48-1583.35 4934.43-1588.35 4934.23-1593.34 4934.06-1598.35 4939.98C-1601.11 4943.24-1603.36 4946.2-1603.36 4946.53-1603.36 4946.85-1602.76 4949.09-1602.02 4951.48L-1600.68 4955.84-1595.79 4955.84C-1591.53 4955.84-1590.72 4955.64-1589.4 4954.29ZM-1474.28 4949.89-1474.28 4944.61-1479.25 4938.36C-1484.19 4932.16-1484.23 4932.12-1487.15 4932.12-1490.5 4932.12-1490.61 4932.46-1489.44 4938.64-1488.9 4941.47-1487.9 4943.14-1483.42 4948.62-1478.89 4954.14-1477.75 4955.17-1476.16 4955.17L-1474.28 4955.17ZM-1626.09 4951.85C-1619.75 4949.31-1618.24 4947.32-1616.6 4939.36-1615.89 4935.92-1615.55 4932.86-1615.84 4932.56-1617.29 4931.09-1619.85 4932.79-1625.9 4939.26-1630.74 4944.44-1632.53 4946.85-1633.36 4949.34-1635.28 4955.12-1634.77 4955.29-1626.09 4951.85ZM-1443.79 4951.46C-1442.63 4949.12-1442.63 4949.04-1443.95 4947.62-1445.03 4946.48-1446.59 4946.05-1451.72 4945.43L-1458.14 4944.69-1460.26 4947.12C-1461.42 4948.47-1462.29 4949.86-1462.19 4950.19-1462.03 4950.76-1449.12 4953.67-1446.29 4953.77-1445.41 4953.82-1444.58 4953.02-1443.79 4951.46ZM-1657.68 4948.54C-1655.33 4947.47-1653.42 4946.38-1653.43 4946.1-1653.44 4945.85-1654.57 4944.83-1655.95 4943.86-1659.43 4941.4-1666.23 4941.13-1670.46 4943.27L-1673.32 4944.74-1671.51 4946.63C-1669.25 4948.99-1664.68 4951.26-1663.11 4950.81-1662.46 4950.61-1660.02 4949.59-1657.68 4948.54ZM-1642.88 4944.54C-1639.44 4943.81-1638.67 4943.39-1637.5 4941.5-1636.52 4939.91-1636.33 4939.06-1636.84 4938.56-1637.78 4937.62-1642.88 4936.82-1648.15 4936.79-1652.03 4936.77-1652.64 4936.97-1654.69 4938.84L-1656.96 4940.9-1654.37 4943.07C-1651.94 4945.11-1649.52 4946-1647.68 4945.56-1647.25 4945.46-1645.08 4944.98-1642.88 4944.54ZM-1604 4943.81C-1603.23 4942.99-1600.95 4940.33-1598.93 4937.84L-1595.25 4933.36-1597.12 4929.45C-1598.15 4927.31-1599.13 4925.54-1599.3 4925.54-1600.39 4925.54-1613.15 4932.24-1613.43 4932.96-1613.61 4933.46-1614.14 4936.17-1614.59 4938.99-1615.58 4945.11-1615.45 4945.28-1609.48 4945.28-1606.08 4945.28-1605.15 4945.03-1604 4943.81ZM-1561.3 4942.02C-1559.13 4940.23-1557.21 4938.51-1557.04 4938.21-1556.54 4937.42-1558.64 4927.91-1559.42 4927.41-1559.79 4927.19-1562.53 4926.46-1565.5 4925.84L-1570.9 4924.72-1576.1 4928.83C-1578.96 4931.09-1581.4 4933.24-1581.53 4933.56-1581.93 4934.6-1578.84 4943.42-1577.96 4943.76-1577.16 4944.06-1569.65 4945.03-1566.68 4945.21-1565.82 4945.26-1563.63 4943.96-1561.3 4942.02ZM-1626.87 4937.17C-1618.7 4928.28-1617.28 4925.54-1621.46 4926.59-1623.52 4927.09-1632.28 4937.02-1633.33 4940.03-1633.69 4941.05-1634.21 4942.12-1634.48 4942.4-1635.17 4943.07-1635.1 4944.64-1634.37 4944.64-1634.04 4944.64-1630.67 4941.27-1626.87 4937.17ZM-1470.33 4944.29C-1470.33 4942.67-1478.12 4931.59-1482.29 4927.29L-1487.45 4921.91-1484.65 4926.96C-1481.89 4931.94-1481.01 4933.19-1474.75 4940.8-1472 4944.16-1470.33 4945.46-1470.33 4944.29ZM-1441.58 4941.62C-1439.64 4939.96-1438.06 4938.24-1438.06 4937.77-1438.06 4934.95-1445.51 4932.84-1451.15 4934.08-1456.82 4935.35-1457.15 4935.65-1457.15 4939.38-1457.15 4942.97-1457.53 4942.72-1450.9 4943.89-1445.58 4944.86-1445.28 4944.79-1441.58 4941.62ZM-1492.47 4942.02C-1491.33 4942.02-1491.27 4941.62-1491.69 4937.32-1491.95 4934.75-1492.3 4932.26-1492.48 4931.79-1492.66 4931.32-1495.21 4929.1-1498.15 4926.84L-1503.5 4922.76-1508.45 4923.85C-1511.18 4924.45-1513.53 4925.05-1513.67 4925.2-1513.82 4925.34-1513.58 4926.99-1513.13 4928.83-1512.36 4932.07-1512.04 4932.41-1505.32 4937.49-1498.93 4942.3-1498.11 4942.74-1496.01 4942.4-1494.74 4942.2-1493.15 4942.02-1492.47 4942.02ZM-1458.77 4939.71C-1458.52 4938.09-1458.48 4936.35-1458.67 4935.85-1458.86 4935.38-1460.78 4934.58-1462.93 4934.13-1466.52 4933.36-1467.12 4933.41-1469.93 4934.65L-1473.01 4936.02-1471.44 4938.51C-1469.98 4940.85-1469.54 4941.08-1465.32 4941.77-1462.82 4942.17-1460.43 4942.54-1459.99 4942.59-1459.55 4942.62-1459.02 4941.38-1458.77 4939.71ZM-1537.2 4937.42-1533.31 4933.48-1536.58 4930C-1538.37 4928.08-1540.61 4925.67-1541.56 4924.65L-1543.29 4922.76-1549.66 4924.87C-1553.17 4926.04-1556.2 4927.41-1556.39 4927.91-1556.82 4929.05-1555.52 4936.77-1554.77 4937.52-1554.31 4937.96-1543.91 4940.95-1541.76 4941.25-1541.39 4941.3-1539.34 4939.58-1537.2 4937.42ZM-1656.22 4938.04C-1655.04 4936.97-1654.08 4935.97-1654.08 4935.8-1654.08 4935.38-1659.97 4931.47-1660.61 4931.47-1661.42 4931.47-1668.56 4934.7-1668.56 4935.05-1668.56 4935.23-1668.07 4936.42-1667.46 4937.69-1666.36 4939.98-1666.28 4940.03-1662.35 4940.01-1658.86 4939.98-1658.09 4939.73-1656.22 4938.04ZM-1631.53 4932.29C-1629.81 4929.88-1628.66 4927.63-1628.97 4927.34-1629.45 4926.86-1637.6 4928.33-1638.92 4929.15-1639.66 4929.6-1638.4 4935.58-1637.44 4936.2-1635.71 4937.29-1634.54 4936.52-1631.53 4932.29ZM-1518.07 4934.13C-1514.98 4932.39-1514.79 4932.14-1514.93 4929.85-1515.2 4925.57-1516.38 4924.27-1524.7 4919.2L-1532.65 4914.37-1536.51 4914.99C-1538.63 4915.34-1540.59 4915.86-1540.86 4916.13-1541.13 4916.41-1541.55 4917.75-1541.8 4919.07-1542.23 4921.44-1542.08 4921.69-1536.72 4927.24-1531.7 4932.41-1530.77 4933.09-1526.61 4934.45-1524.09 4935.28-1521.88 4935.95-1521.7 4935.97-1521.52 4935.97-1519.89 4935.15-1518.07 4934.13ZM-1640.66 4932.61C-1641.21 4928.98-1641.54 4928.63-1645.73 4927.19-1648.69 4926.19-1650.06 4926.09-1654.14 4926.59-1658.34 4927.11-1659.04 4927.39-1659.21 4928.56-1659.36 4929.58-1658.51 4930.52-1655.83 4932.29-1652.26 4934.68-1650.74 4935.03-1643.37 4935.3L-1640.23 4935.43ZM-1470.77 4933.06C-1469.08 4932.46-1467.7 4931.82-1467.71 4931.57-1467.79 4930-1469.78 4928.95-1473.47 4928.53-1476.94 4928.11-1477.57 4928.21-1477.57 4929.05-1477.57 4929.63-1477.17 4930.32-1476.68 4930.62-1476.19 4930.9-1475.44 4931.82-1475.01 4932.61-1474.09 4934.38-1474.54 4934.33-1470.77 4933.06ZM-1451.94 4932.41C-1448.66 4931.44-1448.5 4931.29-1448.92 4929.63-1449.42 4927.61-1450.43 4926.19-1451.36 4926.19-1451.71 4926.19-1454.22 4925.32-1456.93 4924.22-1459.64 4923.13-1462.1 4922.26-1462.39 4922.26-1462.69 4922.26-1464.04 4923.6-1465.4 4925.27L-1467.87 4928.28-1466.56 4930.05C-1464.19 4933.21-1458.01 4934.21-1451.94 4932.41ZM-1577.8 4928.06C-1572.08 4923.58-1571.77 4922.93-1573.1 4918.13L-1573.79 4915.66-1581.51 4915.66-1589.24 4915.66-1593.46 4919.92-1597.68 4924.17-1596.08 4927.61C-1595.19 4929.5-1594.16 4931.37-1593.77 4931.74-1593.37 4932.14-1590.92 4932.41-1588.09 4932.34L-1583.11 4932.21ZM-1606.95 4927.24C-1601.07 4924.32-1598.91 4922.81-1595.22 4919.07L-1590.7 4914.49-1591.49 4912.1C-1592.38 4909.39-1592.42 4909.39-1597.04 4910.73-1599.63 4911.48-1602.26 4913.2-1607.68 4917.7-1611.65 4920.99-1615.1 4923.88-1615.35 4924.12-1615.6 4924.35-1616.28 4925.67-1616.85 4927.04-1617.86 4929.45-1617.85 4929.53-1616.39 4930.12-1615.56 4930.45-1614.73 4930.75-1614.53 4930.77-1614.33 4930.8-1610.92 4929.2-1606.95 4927.24ZM-1485.59 4929.65C-1489.09 4921.96-1490.92 4919.49-1495.29 4916.61-1499.67 4913.7-1499.9 4913.62-1502.52 4914.32-1504.01 4914.72-1505.22 4915.26-1505.2 4915.51-1505.19 4915.79-1504.52 4917.23-1503.72 4918.75-1502.79 4920.52-1500.29 4923.05-1496.78 4925.82-1491.86 4929.7-1490.98 4930.15-1488.33 4930.15-1486.7 4930.15-1485.47 4929.92-1485.59 4929.65ZM-1635.29 4926.41C-1630.89 4925.44-1630.33 4925.17-1630.5 4923.95-1630.73 4922.33-1634.55 4920.81-1638.6 4920.71-1641.54 4920.66-1646.5 4922.78-1646.5 4924.1-1646.5 4924.82-1642.28 4927.29-1640.76 4927.46-1640.5 4927.49-1638.04 4927.01-1635.29 4926.41ZM-1467.04 4924.57C-1465.82 4923.3-1464.96 4922.13-1465.13 4921.96-1465.43 4921.66-1480 4919.62-1481.86 4919.62-1482.38 4919.62-1483.13 4920.24-1483.53 4920.99-1484.14 4922.13-1484.01 4922.66-1482.73 4924.03-1480.59 4926.34-1479.23 4926.76-1473.91 4926.81-1469.45 4926.86-1469.18 4926.76-1467.04 4924.57ZM-1623.54 4922.58C-1621.82 4920.59-1620.57 4918.95-1620.76 4918.95-1620.95 4918.95-1622.75 4919.67-1624.75 4920.57-1627.7 4921.86-1628.39 4922.48-1628.39 4923.75-1628.39 4925.29-1627.91 4926.19-1627.09 4926.19-1626.86 4926.19-1625.26 4924.57-1623.54 4922.58ZM-1550.57 4923.4C-1544.12 4921.29-1544.04 4921.24-1543.36 4918.7-1542.99 4917.3-1542.92 4915.91-1543.22 4915.61-1543.52 4915.34-1546.73 4914.07-1550.35 4912.8-1553.97 4911.55-1557.67 4910.23-1558.58 4909.89-1559.95 4909.34-1561.2 4909.74-1566.05 4912.15-1571.14 4914.72-1571.83 4915.26-1571.53 4916.53-1571.34 4917.3-1570.98 4919.05-1570.75 4920.39-1570.32 4922.73-1570.18 4922.83-1565.6 4924.12-1559.18 4925.92-1558.06 4925.87-1550.57 4923.4ZM-1609.57 4916.73C-1604.79 4912.7-1602.83 4910.66-1603.3 4910.19-1603.77 4909.74-1605.06 4910.29-1607.46 4911.98-1609.37 4913.32-1612.45 4915.51-1614.3 4916.81-1617.29 4918.92-1620.49 4922.53-1620.49 4923.78-1620.49 4925-1615.83 4921.98-1609.57 4916.73ZM-1509.18 4922.21C-1504.31 4921.14-1504.42 4921.29-1506.02 4918-1507.28 4915.39-1508.08 4914.72-1512.31 4912.67-1517.02 4910.41-1517.37 4910.36-1523.88 4910.53-1530.44 4910.71-1530.59 4910.76-1530.59 4912.28-1530.59 4913.55-1529.25 4914.64-1523.04 4918.38-1515.25 4923.05-1514.21 4923.33-1509.18 4922.21ZM-1624.21 4918.4C-1622.53 4917.65-1621.14 4916.78-1621.14 4916.46-1621.14 4916.11-1623.38 4914.91-1626.11 4913.77-1631.3 4911.58-1631.37 4911.58-1637.77 4913.45-1638.96 4913.79-1639.36 4916.61-1638.42 4918.05-1637.76 4919.1-1632.53 4920.24-1629.65 4919.97-1628.35 4919.87-1625.9 4919.15-1624.21 4918.4ZM-1484.49 4918.57C-1484.49 4917.6-1485.04 4917.25-1486.79 4917.08L-1489.1 4916.88-1487.49 4918.57C-1485.7 4920.49-1484.49 4920.49-1484.49 4918.55ZM-1615.4 4915.26C-1614.17 4914.32-1613.3 4913.42-1613.47 4913.25-1613.94 4912.77-1619.17 4915.61-1619.17 4916.33-1619.17 4917.45-1617.73 4917.03-1615.4 4915.26ZM-1567.61 4910.88-1561.82 4908.09-1562.01 4905.46-1562.2 4902.82-1570.76 4902.64-1579.32 4902.49-1584.59 4905.38C-1587.49 4906.95-1589.95 4908.69-1590.05 4909.21-1590.16 4909.74-1589.94 4910.96-1589.58 4911.93L-1588.91 4913.7-1581.15 4913.7-1573.4 4913.7-1567.61 4910.88ZM-1535.2 4913.12C-1533.69 4912.8-1533.2 4912.3-1533.12 4911.06-1532.95 4908.39-1540.95 4901.35-1545.47 4900.18-1548.69 4899.31-1549.37 4899.36-1553.94 4900.65-1560.14 4902.39-1560.96 4903.07-1560.17 4905.78-1559.6 4907.72-1559.04 4908.02-1551.34 4910.71-1543.24 4913.52-1539.67 4914.07-1535.2 4913.12ZM-1504.19 4913.02C-1501.82 4913.02-1503.88 4911.03-1510.51 4906.9-1516.23 4903.31-1518.14 4902.44-1519.84 4902.62L-1521.99 4902.82-1518.85 4905.78C-1515.39 4909.07-1507.38 4913.75-1506 4913.32-1505.52 4913.15-1504.71 4913.02-1504.19 4913.02ZM-1595.54 4908.32C-1590.69 4907.15-1579 4900.65-1579 4899.13-1579 4898.44-1579.22 4897.89-1579.49 4897.89-1581.33 4897.96-1586.07 4899.43-1586.94 4900.23-1587.52 4900.75-1590.49 4902.25-1593.54 4903.56-1600.3 4906.5-1602.3 4907.9-1601.21 4908.99-1600.78 4909.41-1600.02 4909.61-1599.51 4909.41-1599 4909.21-1597.21 4908.72-1595.54 4908.32ZM-1602.59 4906.28C-1600.21 4904.73-1597.7 4903.12-1597.02 4902.69-1594.49 4901.07-1598.64 4901.77-1604.04 4903.86-1609.33 4905.9-1609.62 4906.13-1608.89 4908.04-1608.29 4909.61-1607.33 4909.34-1602.59 4906.28ZM-1522.16 4908.52-1519 4908.09-1521.88 4905.26C-1524.76 4902.44-1524.76 4902.44-1531.29 4901.87-1534.89 4901.57-1538.07 4901.47-1538.36 4901.65-1538.88 4901.95-1538.07 4902.79-1533.33 4906.92-1530.7 4909.21-1528.99 4909.46-1522.16 4908.52ZM-1555.29 4899.31C-1552.41 4898.56-1551 4897.89-1551 4897.22-1551 4896.4-1552.59 4896.22-1560.88 4896.12-1573.16 4895.97-1575.64 4896.3-1576.34 4898.14-1576.63 4898.91-1576.73 4899.76-1576.57 4900.03-1576 4901-1559.72 4900.45-1555.29 4899.31Z" transform="matrix(1 0 0 1.00135 2194.78 -4737.87)"/><path d="M-1687.22 4957.08-1680.57 4961.09-1681.3 4967.46-1672.4 4974.23-1678.03 4978.41-1676.15 4983.99-1659.32 4985.21-1657.26 4987.75-1656.9 4992.45-1660.29 4994.52-1658.71 5004.33-1648.36 5006.14-1641.58 5015.18-1633.64 5015.85-1617.66 5024.07-1616.69 5025.88-1598.64 5034.25-1589.26 5030.49-1568.37 5034.92-1548.75 5029.04-1543.96 5031.04-1542.81 5032.73-1529.01 5035.94-1522.59 5032.55-1511.93 5033.03-1505.51 5025.33-1493.28 5026.43-1471.42 5018.61-1460.03 5017.54-1457.37 5016.08-1461.18 5007.06-1455.51 5004.18-1439.57 5008.38-1433.81 5005.79-1434.3 4999.5-1429.82 4995.74-1430.83 4990.49-1440.94 4987.35-1440.59 4983.81-1424.83 4977.82-1423.2 4976.35-1423.12 4971.05-1423.98 4968.66-1433.65 4965.74-1434 4959.75-1424.15 4956.83-1420.46 4952.55-1422.79 4950.14-1440.7 4949.24-1444.47 4944.93-1436.48 4937.29-1434.81 4947.25-1420.89 4949.74-1420.08 4952.68-1419.89 4963.11-1421.75 4968.48C-1421.75 4968.48-1419.7 4978.76-1419.78 4980.03-1419.86 4981.33-1426.46 4984.59-1426.46 4984.59L-1430.74 4988.59-1426.89 4997.08-1426.72 5002.14-1429.97 5004.35-1429.97 5011.72-1439.9 5015.5-1452.92 5013.09-1453.78 5021.83-1472.96 5026.11-1486.66 5031.76-1493.34 5033.47-1504.3 5032.63-1509.1 5040.17-1523.14 5040.17-1535.13 5043.08-1548.66 5040.84-1553.12 5039.82-1570.59 5044.45-1591.14 5040.17-1603.13 5044.45-1622.82 5035.19-1624.02 5032.98-1637.21 5024.91-1645.09 5024.07-1654.51 5011.89-1663.25 5012.07-1666.16 4999.22-1665.64 4991.18-1675.07 4991.01-1681.4 4982.62-1681.92 4976.62-1685.68 4972.17-1685.51 4964.45-1689.79 4964.27Z" stroke="#000000" stroke-width="1.40639" fill="#1CAF00" fill-opacity="0.360784" transform="matrix(1 0 0 1.00135 2194.78 -4737.87)"/><path d="M-1685.51 4964.45-1680.57 4961.09" stroke="#000000" stroke-width="0.658595" fill="none" transform="matrix(1 0 0 1.00135 2194.78 -4737.87)"/><path d="M-1685.68 4972.17-1681.3 4967.46" stroke="#000000" stroke-width="0.658595" fill="none" transform="matrix(1 0 0 1.00135 2194.78 -4737.87)"/><path d="M-1681.92 4976.62-1672.4 4974.23" stroke="#000000" stroke-width="0.658595" fill="none" transform="matrix(1 0 0 1.00135 2194.78 -4737.87)"/><path d="M-1678.03 4978.41-1681.4 4982.62" stroke="#000000" stroke-width="0.658595" fill="none" transform="matrix(1 0 0 1.00135 2194.78 -4737.87)"/><path d="M-1676.15 4983.99-1675.07 4991.01" stroke="#000000" stroke-width="0.658595" fill="none" transform="matrix(1 0 0 1.00135 2194.78 -4737.87)"/><path d="M-1659.32 4985.21-1665.64 4991.18" stroke="#000000" stroke-width="0.658595" fill="none" transform="matrix(1 0 0 1.00135 2194.78 -4737.87)"/><path d="M-1656.9 4992.45-1666.16 4999.22" stroke="#000000" stroke-width="0.658595" fill="none" transform="matrix(1 0 0 1.00135 2194.78 -4737.87)"/><path d="M-1658.71 5004.33-1663.25 5012.07" stroke="#000000" stroke-width="0.658595" fill="none" transform="matrix(1 0 0 1.00135 2194.78 -4737.87)"/><path d="M-1648.36 5006.14-1654.51 5011.89" stroke="#000000" stroke-width="0.658595" fill="none" transform="matrix(1 0 0 1.00135 2194.78 -4737.87)"/><path d="M-1641.58 5015.18-1645.09 5024.07" stroke="#000000" stroke-width="0.658595" fill="none" transform="matrix(1 0 0 1.00135 2194.78 -4737.87)"/><path d="M-1633.64 5015.85-1637.21 5024.91" stroke="#000000" stroke-width="0.658595" fill="none" transform="matrix(1 0 0 1.00135 2194.78 -4737.87)"/><path d="M-1617.66 5024.07-1624.02 5032.98" stroke="#000000" stroke-width="0.658595" fill="none" transform="matrix(1 0 0 1.00135 2194.78 -4737.87)"/><path d="M-1598.64 5034.25-1603.13 5044.45" stroke="#000000" stroke-width="0.658595" fill="none" transform="matrix(1 0 0 1.00135 2194.78 -4737.87)"/><path d="M-1589.26 5030.49-1591.14 5040.17" stroke="#000000" stroke-width="0.658595" fill="none" transform="matrix(1 0 0 1.00135 2194.78 -4737.87)"/><path d="M-1568.37 5034.92-1570.59 5044.45" stroke="#000000" stroke-width="0.658595" fill="none" transform="matrix(1 0 0 1.00135 2194.78 -4737.87)"/><path d="M-1550.72 5029.89-1553.12 5039.82" stroke="#000000" stroke-width="0.658595" fill="none" transform="matrix(1 0 0 1.00135 2194.78 -4737.87)"/><path d="M-1543.96 5031.04-1548.66 5040.84" stroke="#000000" stroke-width="0.658595" fill="none" transform="matrix(1 0 0 1.00135 2194.78 -4737.87)"/><path d="M-1529.01 5035.94-1535.13 5043.08" stroke="#000000" stroke-width="0.658595" fill="none" transform="matrix(1 0 0 1.00135 2194.78 -4737.87)"/><path d="M-1522.59 5032.55-1523.14 5040.17" stroke="#000000" stroke-width="0.658595" fill="none" transform="matrix(1 0 0 1.00135 2194.78 -4737.87)"/><path d="M-1511.93 5033.03-1509.1 5040.17" stroke="#000000" stroke-width="0.658595" fill="none" transform="matrix(1 0 0 1.00135 2194.78 -4737.87)"/><path d="M-1505.51 5025.33-1504.3 5032.63" stroke="#000000" stroke-width="0.658595" fill="none" transform="matrix(1 0 0 1.00135 2194.78 -4737.87)"/><path d="M-1480.55 5021.55-1477.78 5029.72" stroke="#000000" stroke-width="0.658595" fill="none" transform="matrix(1 0 0 1.00135 2194.78 -4737.87)"/><path d="M-1471.42 5018.61-1466.15 5024.61" stroke="#000000" stroke-width="0.658595" fill="none" transform="matrix(1 0 0 1.00135 2194.78 -4737.87)"/><path d="M-1457.37 5016.08-1453.78 5021.83" stroke="#000000" stroke-width="0.658595" fill="none" transform="matrix(1 0 0 1.00135 2194.78 -4737.87)"/><path d="M-1455.51 5004.18-1452.92 5013.09" stroke="#000000" stroke-width="0.658595" fill="none" transform="matrix(1 0 0 1.00135 2194.78 -4737.87)"/><path d="M-1439.57 5008.38-1439.9 5015.5" stroke="#000000" stroke-width="0.658595" fill="none" transform="matrix(1 0 0 1.00135 2194.78 -4737.87)"/><path d="M-1433.81 5005.79-1429.97 5011.72" stroke="#000000" stroke-width="0.658595" fill="none" transform="matrix(1 0 0 1.00135 2194.78 -4737.87)"/><path d="M-1429.82 4995.74-1426.72 5002.14" stroke="#000000" stroke-width="0.658595" fill="none" transform="matrix(1 0 0 1.00135 2194.78 -4737.87)"/><path d="M-1440.59 4983.81-1430.74 4988.59" stroke="#000000" stroke-width="0.658595" fill="none" transform="matrix(1 0 0 1.00135 2194.78 -4737.87)"/><path d="M-1424.83 4977.82-1419.4 4980.78" stroke="#000000" stroke-width="0.658595" fill="none" transform="matrix(1 0 0 1.00135 2194.78 -4737.87)"/><path d="M-1434 4959.75-1421.75 4968.48" stroke="#000000" stroke-width="0.658595" fill="none" transform="matrix(1 0 0 1.00135 2194.78 -4737.87)"/></g></svg>