<?xml version="1.0" encoding="UTF-8" standalone="no"?>
<svg
   xmlns:dc="http://purl.org/dc/elements/1.1/"
   xmlns:cc="http://creativecommons.org/ns#"
   xmlns:rdf="http://www.w3.org/1999/02/22-rdf-syntax-ns#"
   xmlns:svg="http://www.w3.org/2000/svg"
   xmlns="http://www.w3.org/2000/svg"
   xmlns:sodipodi="http://sodipodi.sourceforge.net/DTD/sodipodi-0.dtd"
   xmlns:inkscape="http://www.inkscape.org/namespaces/inkscape"
   width="272"
   height="153"
   xml:space="preserve"
   overflow="hidden"
   version="1.1"
   id="svg77"
   sodipodi:docname="dome1.svg"
   inkscape:version="0.92.1 r15371"><metadata
     id="metadata81"><rdf:RDF><cc:Work
         rdf:about=""><dc:format>image/svg+xml</dc:format><dc:type
           rdf:resource="http://purl.org/dc/dcmitype/StillImage" /></cc:Work></rdf:RDF></metadata><sodipodi:namedview
     pagecolor="#ffffff"
     bordercolor="#666666"
     borderopacity="1"
     objecttolerance="10"
     gridtolerance="10"
     guidetolerance="10"
     inkscape:pageopacity="0"
     inkscape:pageshadow="2"
     inkscape:window-width="1920"
     inkscape:window-height="1017"
     id="namedview79"
     showgrid="false"
     inkscape:zoom="1.2279412"
     inkscape:cx="15.473054"
     inkscape:cy="76.5"
     inkscape:window-x="-8"
     inkscape:window-y="-8"
     inkscape:window-maximized="1"
     inkscape:current-layer="svg77" /><defs
     id="defs5"><clipPath
       id="clip0"><rect
         x="504"
         y="161"
         width="272"
         height="153"
         id="rect2" /></clipPath></defs><g
     clip-path="url(#clip0)"
     transform="matrix(0.78426415,0,0,0.7977396,-365.94778,-112.96067)"
     id="g75"><path
       d="m -1536.41,5035.94 c -6.79,-1.2 -7.9,-1.62 -7.9,-3.14 0,-0.52 -0.99,-1.39 -2.2,-1.89 -2.03,-0.85 -2.88,-0.75 -10.7,1.34 -4.68,1.25 -9.17,2.62 -9.98,3.04 -1.6,0.85 -2.44,0.72 -15.47,-2.09 l -7.07,-1.52 -3.23,1.74 c -1.77,0.98 -4.15,1.77 -5.29,1.77 -2.53,0 -20.48,-8.86 -20.48,-10.1 0,-0.48 -3.43,-2.57 -7.61,-4.61 -6.81,-3.33 -8.05,-3.73 -11.77,-3.73 h -4.17 l -3.36,-4.86 c -3.58,-5.2 -3.23,-5 -10.8,-6.05 -1.73,-0.24 -3.36,-0.77 -3.63,-1.19 -0.26,-0.4 -0.8,-2.94 -1.2,-5.63 -0.64,-4.43 -0.6,-5 0.5,-6.09 0.66,-0.65 1.5,-1.2 1.87,-1.2 1,0 0.78,-3.73 -0.28,-4.8 -0.65,-0.65 -3.43,-1.1 -9.03,-1.42 -4.44,-0.25 -8.56,-0.72 -9.15,-1.05 -0.94,-0.5 -2.62,-4.6 -2.62,-6.39 0,-0.35 1.22,-1.47 2.71,-2.44 l 2.71,-1.8 -4.38,-2.93 -4.37,-2.94 0.42,-3.19 0.42,-3.16 -2.87,-1.59 c -2.39,-1.32 -2.87,-1.92 -2.87,-3.54 0,-1.76 0.32,-2.06 3.29,-3.06 1.81,-0.59 5.59,-1.59 8.4,-2.24 2.81,-0.62 5.1,-1.37 5.1,-1.67 0,-0.29 -1.03,-1.31 -2.3,-2.29 -3.2,-2.43 -2.97,-3.7 1.04,-5.57 3.01,-1.42 3.3,-1.74 2.92,-3.24 -1.38,-5.52 -1.57,-5.12 3.54,-7.39 3.86,-1.69 4.68,-2.31 4.68,-3.58 0,-2.02 1.37,-2.64 7.02,-3.22 4.02,-0.39 4.97,-0.74 6.55,-2.39 1.02,-1.04 3.01,-2.24 4.43,-2.61 2.57,-0.7 2.58,-0.7 2.26,-3.56 -0.18,-1.57 -0.14,-3.13 0.08,-3.48 0.22,-0.33 2.65,-1.12 5.39,-1.72 l 4.98,-1.1 5.11,2.07 5.1,2.07 4.83,-2.12 4.82,-2.09 -0.34,-2.56 c -0.28,-2.12 -0.12,-2.64 0.89,-3.02 0.68,-0.22 3.46,-1.29 6.18,-2.36 4.08,-1.62 5.54,-1.89 8.35,-1.57 2.71,0.32 4.21,0.07 7.25,-1.17 7.94,-3.24 24.77,-6.32 34.45,-6.32 10.24,0 28.53,3.38 35.9,6.64 3.91,1.72 15.94,8.52 21.4,12.1 3.3,2.14 5.19,2.89 8.23,3.26 2.29,0.3 4.51,1 5.27,1.67 1.24,1.12 13.43,3.34 18.21,3.31 0.96,0 5.11,1.3 9.22,2.89 l 7.48,2.86 0.92,2.99 c 0.89,2.91 1.01,3.01 5.01,4.08 4.11,1.12 6.91,3.51 6.91,5.9 0,0.52 -1.63,2.24 -3.62,3.81 -1.99,1.54 -3.62,3.01 -3.62,3.23 0,1.5 2.67,2.09 10.69,2.39 7.49,0.28 9.04,0.53 10.87,1.72 2.75,1.82 2.75,3.66 0,6.65 -1.74,1.89 -2.93,2.49 -6.41,3.18 -3.35,0.68 -4.44,1.2 -5.05,2.42 -1.19,2.39 -0.52,3.03 4.12,3.96 4.87,0.97 5.82,1.94 6.45,6.62 0.79,5.82 0.32,6.34 -8.51,9.68 -4.34,1.64 -8.11,3.19 -8.38,3.43 -0.27,0.25 1.47,1.17 3.86,2.07 4.68,1.72 5.85,2.91 6.52,6.6 0.4,2.19 0.26,2.46 -2.29,4.13 -2.28,1.52 -2.64,2.04 -2.22,3.26 1.27,3.71 0.72,5.13 -2.74,7.09 l -3.29,1.87 -7.57,-1.94 c -8.51,-2.17 -9.17,-2.24 -11.43,-1.22 l -1.62,0.75 1.58,3.38 c 2.99,6.42 2.01,7.39 -7.97,7.84 -4.62,0.2 -6.72,0.63 -9.54,1.97 -1.99,0.95 -6.29,2.79 -9.54,4.13 -5.79,2.39 -6.04,2.44 -12,2.02 -3.34,-0.23 -6.49,-0.57 -7,-0.77 -0.6,-0.23 -1.86,0.99 -3.55,3.46 l -2.62,3.83 -5.86,0.02 c -5.09,0.03 -6.32,0.25 -9.3,1.82 -1.89,0.97 -3.67,1.74 -3.95,1.72 -0.29,-0.05 -3.33,-0.57 -6.78,-1.17 z"
       transform="matrix(1,0,0,1.00135,2194.78,-4737.87)"
       id="path7"
       inkscape:connector-curvature="0"
       style="fill:#b4e300;fill-opacity:0.36078401" /><path
       d="m -1536.82,5035.52 c -4.15,-0.88 -5.92,-1.6 -6.92,-2.77 -2.68,-3.16 -3.96,-3.23 -13.25,-0.77 -4.68,1.25 -9.18,2.64 -10.01,3.11 -1.28,0.7 -2.61,0.6 -8.57,-0.69 -15.46,-3.36 -13.63,-3.22 -17.2,-1.27 -1.76,0.94 -4.11,1.74 -5.22,1.74 -2.61,0 -19.86,-8.39 -19.86,-9.63 0,-0.55 -3.38,-2.62 -8.03,-4.91 -7.3,-3.58 -8.38,-3.93 -11.92,-3.83 -2.14,0.07 -4.08,-0.15 -4.32,-0.5 -0.24,-0.35 -1.69,-2.44 -3.23,-4.68 -1.53,-2.21 -3.16,-4.28 -3.62,-4.55 -0.45,-0.3 -2.83,-0.7 -5.29,-0.95 -2.45,-0.22 -4.63,-0.57 -4.84,-0.8 -0.63,-0.62 -2.19,-9.65 -1.83,-10.6 0.19,-0.47 1.1,-1.22 2.02,-1.64 1.5,-0.68 1.63,-1.02 1.24,-3.21 -0.63,-3.51 -1.77,-4.11 -7.97,-4.11 -2.95,0 -6.71,-0.18 -8.34,-0.4 -2.57,-0.35 -3.12,-0.72 -4.05,-2.66 -1.67,-3.51 -1.39,-4.66 1.56,-6.15 1.45,-0.75 2.64,-1.59 2.64,-1.92 0,-0.3 -1.93,-1.82 -4.3,-3.36 l -4.29,-2.79 0.42,-3.16 0.42,-3.16 -2.88,-1.79 c -1.58,-1 -3.07,-2.09 -3.31,-2.47 -1.15,-1.76 1.02,-3.13 7.02,-4.43 5.8,-1.24 10.21,-2.68 10.21,-3.33 0,-0.35 -1.04,-1.55 -2.3,-2.67 -1.27,-1.09 -2.31,-2.29 -2.31,-2.58 0,-0.33 1.48,-1.35 3.29,-2.27 3.54,-1.79 3.86,-2.59 2.28,-5.65 -0.56,-1.07 -0.86,-2.22 -0.67,-2.51 0.19,-0.3 2.28,-1.4 4.65,-2.39 3.63,-1.55 4.38,-2.14 4.82,-3.86 0.51,-1.99 0.64,-2.07 5.88,-2.71 4.43,-0.53 5.68,-0.98 7.23,-2.44 1.02,-1 3.04,-2.22 4.48,-2.72 2.55,-0.89 2.62,-0.99 2.62,-3.98 0,-3.63 0.41,-3.98 5.88,-5 3.82,-0.73 4.24,-0.68 9.1,1.29 l 5.11,2.04 5.1,-2.26 5.1,-2.24 -0.19,-2.59 -0.2,-2.57 4.48,-1.56 c 2.46,-0.85 5.29,-1.95 6.3,-2.47 1.45,-0.72 2.33,-0.75 4.36,-0.15 2.25,0.7 3.03,0.57 7.01,-1.02 2.46,-0.97 6.72,-2.21 9.47,-2.74 2.75,-0.52 6.62,-1.42 8.62,-1.96 4.7,-1.32 21.91,-1.94 27.87,-1.02 2.47,0.39 7.36,1.37 10.86,2.16 5.17,1.2 6.05,1.57 4.63,1.94 -1.02,0.28 -3.81,-0.02 -6.78,-0.72 -4.93,-1.19 -14.19,-1.17 -14.19,0.03 0,1.14 12.33,2.73 12.78,1.66 0.19,-0.44 0.49,-0.39 0.86,0.13 0.73,1.02 12.7,1.94 12.7,0.97 0,-0.37 -0.37,-0.82 -0.82,-1.02 -0.45,-0.17 -0.18,-0.35 0.6,-0.37 1.95,-0.08 14.94,6.79 24.54,12.96 4.52,2.92 6.23,3.64 9.22,3.91 2.22,0.23 4.2,0.85 5,1.57 1.01,0.92 3.64,1.47 10.81,2.29 7.92,0.9 10.69,1.54 16.76,3.83 l 7.27,2.74 0.72,2.96 c 0.7,2.87 0.81,2.97 4.42,3.94 3.85,1.02 7.1,3.41 7.1,5.22 0,0.58 -1.63,2.32 -3.62,3.86 -6.15,4.81 -5.06,5.7 7.81,6.38 7.67,0.39 9.32,0.67 10.37,1.74 0.68,0.67 1.54,1.24 1.9,1.24 0.37,0 0.66,0.57 0.66,1.3 0,0.74 -0.37,1.32 -0.82,1.34 -0.45,0 -1.29,0.82 -1.87,1.84 -0.86,1.52 -1.89,2.04 -5.92,3.01 -5.22,1.25 -5.85,1.75 -5.87,4.46 -0.01,1.64 0.34,1.84 4.67,2.96 5.41,1.4 6,2.12 6.27,7.64 0.23,4.56 0.11,4.66 -8.97,7.97 -8.72,3.19 -8.64,3.16 -8.4,3.86 0.11,0.35 2.28,1.44 4.8,2.41 4.36,1.67 4.63,1.89 5.51,4.66 0.9,2.83 0.88,2.93 -0.82,4.4 -0.96,0.82 -2.17,1.72 -2.69,2.02 -0.78,0.45 -0.81,1.02 -0.17,3.41 0.74,2.76 0.71,2.91 -1.2,4.45 -3.52,2.84 -3.63,2.84 -18.9,-0.62 -2.43,-0.55 -3.47,-0.52 -4.78,0.18 -2.07,1.12 -2.07,1.66 -0.02,6.05 1.63,3.48 1.63,3.53 0.35,4.6 -0.9,0.75 -3.26,1.2 -7.74,1.49 -5.06,0.35 -7.36,0.85 -10.73,2.34 -2.35,1.05 -6.9,2.97 -10.12,4.26 -5.53,2.24 -6.05,2.34 -9.88,1.74 -9.97,-1.54 -9,-1.76 -11.78,2.64 l -2.48,3.91 h -6.08 c -5.27,0 -6.47,0.22 -8.95,1.64 -3.31,1.89 -3.8,1.92 -11.27,0.33 z m 10.35,-1.47 c 1.54,-0.82 2.79,-1.8 2.79,-2.14 -0.02,-1.32 -4.31,-5.65 -5.85,-5.93 -1.62,-0.3 -13.24,4.66 -13.24,5.65 0,0.97 1.65,1.6 7.24,2.64 3.08,0.6 5.75,1.12 5.93,1.17 0.18,0.05 1.59,-0.57 3.13,-1.39 z m -42.16,-2.89 c -0.19,-1.67 -0.74,-3.29 -1.22,-3.58 -0.48,-0.3 -2.83,-1.03 -5.21,-1.62 -4.26,-1.05 -4.41,-1.02 -8.58,0.52 -6,2.27 -5.89,3.36 0.5,4.75 2.82,0.63 6.76,1.52 8.75,2 6.09,1.46 6.16,1.44 5.76,-2.07 z m -24.79,0.57 c 1.89,-1.07 3.23,-2.26 3.23,-2.94 0,-0.67 -2.02,-2.43 -5.11,-4.43 -4.81,-3.11 -5.35,-3.31 -9.46,-3.31 -3.27,0 -5.32,0.4 -8.17,1.67 -2.23,0.97 -3.56,1.92 -3.21,2.27 1.28,1.27 16.49,8.48 17.95,8.53 0.85,0.03 3,-0.79 4.77,-1.79 z m 38.33,-1.81 c 4.4,-1.13 4.45,-1.17 3.29,-2.44 -0.65,-0.73 -1.95,-1.87 -2.9,-2.54 -1.68,-1.2 -1.8,-1.2 -7.24,0.57 -5.15,1.64 -5.51,1.89 -5.3,3.43 0.5,3.56 1.1,3.96 4.55,3.02 1.72,-0.5 5.14,-1.4 7.6,-2.04 z m 45.8,-1.08 2.21,-3.38 -1.88,-1.52 c -3.98,-3.21 -4.22,-3.23 -10.38,-0.92 -3.13,1.19 -5.85,2.41 -6.05,2.74 -0.2,0.32 0.62,1.74 1.83,3.13 2.26,2.59 3.5,3.04 9.11,3.22 2.87,0.1 3.03,0 5.16,-3.27 z m -29.91,-1.34 c 2.56,-1.17 4.81,-2.24 4.99,-2.39 0.18,-0.12 -0.86,-1.24 -2.31,-2.49 -1.92,-1.64 -3.34,-2.26 -5.26,-2.34 l -2.64,-0.12 2.31,-0.25 c 2.1,-0.23 2.64,-0.8 6.12,-6.25 l 3.81,-5.97 -3.49,-5.28 c -1.91,-2.91 -3.67,-5.58 -3.9,-5.92 -0.44,-0.7 -10.45,4.48 -10.45,5.4 0,0.27 0.59,3.28 1.31,6.69 0.72,3.41 1.31,7.3 1.32,8.62 0,1.99 0.27,2.48 1.49,2.71 1.25,0.25 1.2,0.3 -0.36,0.37 -1.96,0.1 -7.05,2.44 -7.05,3.24 0,1.14 6.91,5.85 8.84,6.02 0.33,0.03 2.7,-0.89 5.27,-2.04 z m -45.35,-2.26 c 3.84,-1.27 4.71,-2 5.01,-4.19 0.18,-1.37 -0.32,-1.94 -3.08,-3.46 -1.81,-0.99 -4.14,-1.81 -5.19,-1.81 -1.74,-0.03 -8.5,3.31 -9.27,4.55 -0.36,0.57 7.39,5.95 8.58,5.98 0.39,0 2.17,-0.5 3.95,-1.07 z m 20.65,-0.8 c 1.96,-0.62 3.66,-1.42 3.78,-1.77 0.11,-0.35 -1.47,-1.79 -3.52,-3.18 -3.48,-2.37 -3.96,-2.49 -7.09,-2.12 -4.46,0.57 -6.43,1.64 -7.01,3.83 -0.57,2.12 -0.2,2.42 4.32,3.51 4.38,1.07 5.31,1.05 9.52,-0.27 z m 76.33,-0.37 c 1.93,-0.83 3.51,-1.75 3.52,-2.05 0.02,-0.29 -3.02,-2.39 -6.75,-4.65 l -6.77,-4.08 -6.63,2.34 c -9.02,3.16 -9.15,3.33 -4.69,6.27 2.82,1.87 4.65,2.56 8.09,3.01 7.18,0.92 9.52,0.77 13.23,-0.84 z m -34.46,-1.77 c 2.9,-1.12 5.79,-2.19 6.42,-2.39 1.81,-0.55 1.37,-1.45 -1.31,-2.66 -1.36,-0.63 -4.93,-2.69 -7.93,-4.61 -3,-1.89 -5.67,-3.46 -5.93,-3.46 -0.4,0 -6.03,8.46 -6.6,9.93 -0.4,1.02 6.09,5.18 8.11,5.2 1.08,0 4.34,-0.89 7.24,-2.01 z m -91.19,-1.27 c 2.94,-1.52 3.03,-1.84 1.58,-6.1 -1.13,-3.31 -1.2,-3.34 -8.3,-4.16 -3.52,-0.39 -3.98,-0.27 -7.74,2.04 -2.2,1.37 -4,2.59 -4,2.72 0,0.59 13.02,6.74 14.35,6.79 0.83,0.03 2.68,-0.57 4.11,-1.29 z m 60.93,-0.5 c 3.28,-1.59 3.64,-1.97 3.33,-3.43 -0.19,-0.93 -0.84,-4.48 -1.44,-7.92 -0.59,-3.43 -1.36,-6.55 -1.69,-6.92 -0.34,-0.37 -2.86,-0.97 -5.6,-1.37 -5.79,-0.82 -5.4,-1.19 -7.14,6.97 -0.58,2.71 -1.2,5.43 -1.38,6.02 -0.23,0.78 1.08,2.2 4.38,4.78 2.59,2.02 4.96,3.69 5.28,3.69 0.32,0 2.23,-0.82 4.26,-1.82 z m 78.31,-2.74 c 0.22,-0.35 -0.58,-2.64 -1.76,-5.08 -2.02,-4.13 -2.38,-4.5 -5.53,-5.62 l -3.37,-1.22 -5.72,2.69 c -3.15,1.49 -5.63,2.96 -5.52,3.26 0.11,0.32 3.6,2.64 7.76,5.15 l 7.57,4.58 3.09,-1.57 c 1.7,-0.84 3.26,-1.84 3.48,-2.19 z m -121.97,-0.42 c 2.08,-1.29 3.78,-2.56 3.78,-2.81 0,-0.45 -15.16,-3.46 -17.29,-3.41 -1.41,0.02 -1.41,0.05 -0.05,4.35 1.18,3.76 1.36,3.86 6.48,4.11 2.78,0.12 3.87,-0.22 7.08,-2.24 z m 27.16,-2.37 c 0.14,-0.14 1.04,-3.75 2,-8.04 l 1.74,-7.76 -1.78,-2.57 c -0.98,-1.41 -2.12,-2.83 -2.53,-3.16 -0.66,-0.52 -14.78,0.87 -15.43,1.52 -0.18,0.18 -3.32,17.35 -3.42,18.62 0,0.1 0.37,0.18 0.82,0.18 0.45,0 2.59,0.84 4.76,1.86 l 3.93,1.84 4.83,-1.12 c 2.65,-0.62 4.94,-1.24 5.08,-1.37 z m 62.61,-0.52 c 3.88,-1.42 7.34,-2.89 7.7,-3.23 0.7,-0.7 0.55,-1.22 -2.37,-8.49 -0.91,-2.27 -1.42,-4.11 -1.15,-4.11 0.28,0 0.91,1.25 1.4,2.79 1.16,3.63 3.25,7.74 3.95,7.74 1.3,0 10.52,-4.68 10.52,-5.35 0,-0.8 -2.67,-12.37 -4.36,-18.89 l -1.07,-4.14 -4.68,0.2 -4.68,0.18 -1.7,4.43 c -0.94,2.44 -1.9,4.63 -2.13,4.85 -0.24,0.25 -0.04,1.22 0.44,2.17 0.48,0.94 1.05,2.61 1.26,3.71 0.37,1.84 0.34,1.84 -0.58,-0.33 -1.78,-4.23 -1.86,-4.3 -5.49,-4.11 -6.36,0.35 -6.12,0 -7.86,11.58 -0.84,5.65 -1.34,10.58 -1.1,10.95 0.24,0.4 1.37,1.12 2.52,1.62 1.15,0.5 2.15,0.95 2.21,0.97 0.07,0.03 3.3,-1.12 7.17,-2.54 z m 47.04,1.97 c 0.83,-0.52 0.71,-1.15 -0.82,-4.28 l -1.79,-3.66 h -6.59 c -3.63,0 -6.6,0.27 -6.6,0.6 0,0.34 0.64,2.26 1.41,4.28 l 1.41,3.68 h 6 c 3.3,0 6.44,-0.27 6.98,-0.62 z m -171.16,-4.13 c 2.28,-1.55 4.24,-3.11 4.35,-3.49 0.12,-0.4 -0.76,-1.74 -1.94,-3.04 -1.85,-2.01 -2.69,-2.41 -6.11,-2.78 -3.4,-0.38 -4.58,-0.2 -8.23,1.27 -2.35,0.97 -4.37,1.84 -4.5,1.96 -0.24,0.23 3.39,5.78 5.04,7.72 0.69,0.8 1.96,1.14 4.12,1.14 2.6,0 3.84,-0.47 7.27,-2.78 z m 111.23,-8.14 c 1.87,-12.13 1.91,-11.8 -2.4,-17.35 l -3.73,-4.81 -3.22,0.45 c -1.77,0.23 -4.31,0.77 -5.64,1.22 -2.34,0.75 -2.47,0.97 -3.57,5.7 l -1.14,4.93 3.81,5.95 c 3.34,5.2 4.47,6.37 8.99,9.38 2.84,1.92 5.26,3.36 5.37,3.26 0.12,-0.12 0.81,-4.05 1.53,-8.73 z m -70.86,7.14 c 0.19,-0.65 0.94,-4.68 1.66,-8.99 1.46,-8.58 1.6,-7.81 -2.58,-14.08 -1.79,-2.69 -2.6,-3.39 -3.62,-3.14 -0.73,0.2 -2.83,0.35 -4.68,0.35 h -3.35 l -2.85,5.28 c -2.79,5.2 -2.85,5.42 -2.9,11.87 -0.03,3.93 0.21,6.57 0.6,6.6 0.37,0.02 3.92,0.74 7.91,1.59 9.03,1.89 9.38,1.91 9.81,0.5 z m -19.76,-8.59 c 0.32,-3.71 0.42,-6.92 0.23,-7.12 -0.39,-0.39 -16.24,6.68 -17.26,7.67 -0.41,0.42 0.17,1.47 1.67,2.96 2.54,2.54 5.97,3.56 11.48,3.36 l 3.29,-0.1 z m 173.37,3.76 c 2.5,-1.54 2.6,-1.89 1.24,-4.53 -0.82,-1.59 -1.5,-1.94 -4.44,-2.31 -1.91,-0.23 -5.96,-0.87 -8.99,-1.42 -3.04,-0.55 -5.95,-0.82 -6.46,-0.62 -0.67,0.24 -0.88,1.24 -0.74,3.46 l 0.2,3.11 6.92,1.76 c 8.55,2.22 9.5,2.27 12.27,0.55 z m -22.94,-1.04 c 2.02,-0.9 2.16,-1.17 1.98,-3.74 -0.25,-3.36 -0.85,-3.53 -11.46,-3.66 l -7.3,-0.07 -3.73,2.66 c -2.05,1.47 -3.73,2.91 -3.73,3.21 0,0.3 1.56,1.12 3.46,1.85 2.9,1.07 4.68,1.24 11.03,1.02 4.75,-0.18 8.39,-0.65 9.75,-1.27 z m -185.93,-1.85 c 1.82,-0.89 3.67,-1.64 4.12,-1.64 1.16,-0.05 1.03,-1.74 -0.29,-3.83 -0.62,-1 -1.17,-1.87 -1.23,-1.97 -0.06,-0.1 -3.19,-0.79 -6.95,-1.52 -5.22,-1.02 -7.21,-1.17 -8.4,-0.62 -1.49,0.67 -1.55,0.92 -1.11,4.81 0.25,2.26 0.71,4.35 1.02,4.67 0.47,0.48 2.57,0.85 8.89,1.62 0.37,0.05 2.15,-0.64 3.95,-1.52 z m 19.79,-3.13 c 2.91,-1.42 3.01,-1.57 2.63,-3.79 -0.97,-5.65 -1.11,-5.99 -2.22,-5.67 -0.6,0.17 -3.17,0.52 -5.7,0.77 -4.12,0.42 -9.03,2.17 -9.88,3.56 -0.17,0.27 0.56,1.69 1.63,3.16 1.96,2.74 2.77,3.04 8.39,3.34 1.17,0.05 3.49,-0.58 5.15,-1.37 z m 145.16,-1.59 c 3.55,-2.67 3.44,-2.32 4.38,-13.57 0.4,-4.95 0.34,-5.28 -2.08,-10.38 l -2.5,-5.28 h -2.68 c -1.48,0 -3.01,0.23 -3.42,0.5 -0.4,0.27 -1.29,2.64 -1.96,5.28 -1.22,4.78 -1.22,4.83 0.22,10.53 0.79,3.16 1.92,7.91 2.51,10.53 0.58,2.63 1.34,4.77 1.68,4.77 0.35,0 2.08,-1.09 3.85,-2.41 z m -65.76,-1.72 c 5.72,-3.04 6.11,-3.66 6.89,-10.71 l 0.37,-3.28 -3.68,-3.19 -3.68,-3.18 -7.39,1.71 c -4.07,0.95 -7.99,1.97 -8.72,2.29 -0.79,0.33 -2.22,2.57 -3.55,5.6 -2.45,5.6 -2.4,6.08 1.19,10.23 1.69,1.95 3.19,2.34 12.47,3.24 0.48,0.05 3.23,-1.17 6.1,-2.71 z m 113.18,-0.15 c 2.43,-1.52 2.55,-1.74 1.99,-3.71 -0.72,-2.49 -0.03,-1.99 -5.54,-4.16 l -4.57,-1.79 -5.96,2.12 c -6.3,2.24 -6.94,2.71 -6.95,5 -0.01,1.27 0.46,1.49 3.77,1.89 2.09,0.27 5.87,0.85 8.4,1.3 6.32,1.14 5.98,1.17 8.86,-0.65 z m -181.27,-2.12 c 5.12,-2.31 5.52,-2.64 7.41,-6.2 1.1,-2.04 2,-4.05 2,-4.45 0,-0.4 -1.19,-3.26 -2.65,-6.37 -2.88,-6.18 -2.62,-6 -7.89,-4.53 -0.59,0.15 -2.11,3.53 -3.77,8.33 -2.7,7.85 -3.06,10.73 -1.79,14.82 0.36,1.19 0.68,1.12 6.69,-1.6 z m 158.27,0.43 c 1.51,-2.84 0.6,-3.86 -6.06,-6.85 -3.51,-1.57 -7.46,-3.68 -8.78,-4.7 -3.06,-2.32 -3.56,-1.67 -3.72,4.82 -0.06,2.62 -0.14,5.31 -0.17,5.93 -0.05,0.97 0.72,1.22 4.55,1.54 2.54,0.2 6.6,0.43 9.03,0.48 3.86,0.12 4.52,-0.05 5.15,-1.22 z m -184.39,-2.29 c 1.07,-0.55 1.94,-1.27 1.94,-1.6 0,-0.32 -1.7,-1.96 -3.79,-3.63 -3.58,-2.89 -3.95,-3.04 -6.86,-2.69 -1.69,0.22 -3.99,0.7 -5.1,1.1 -1.74,0.59 -2.03,1.04 -2.03,2.96 0,2.59 0.04,2.61 6.63,3.83 6.54,1.2 6.96,1.2 9.21,0.03 z m 63.55,-1.2 c 3.28,-0.47 6.27,-1.04 6.65,-1.27 0.38,-0.25 1.66,-2.66 2.84,-5.35 l 2.15,-4.93 -3.45,-5.3 -3.45,-5.33 h -5.72 -5.72 l -3.75,6.67 c -2.06,3.66 -3.74,7.07 -3.74,7.6 0,0.52 1.2,2.73 2.66,4.87 2.99,4.41 2.55,4.31 11.53,3.04 z m -55.63,-9.01 c 0.22,-4.16 0.27,-7.87 0.12,-8.21 -0.14,-0.38 -1.11,-1.35 -2.15,-2.17 l -1.88,-1.49 -4.59,6.72 -4.59,6.72 4.05,3.16 c 3.28,2.54 4.49,3.11 6.35,3.01 l 2.31,-0.15 z m 123.35,7.02 c 3.2,-0.75 3.21,-0.77 4.8,-5.2 l 1.6,-4.46 -3.09,-4.33 c -1.7,-2.39 -3.5,-4.48 -4,-4.68 -0.5,-0.2 -3.19,-0.1 -5.99,0.22 -4.95,0.55 -5.11,0.63 -6.21,2.89 -2.48,5.08 -2.33,6 1.88,11.45 4.26,5.53 4.58,5.65 11.01,4.11 z m 61.04,-1.82 c 3.24,-1.14 5.89,-2.31 5.89,-2.61 0,-0.33 -2.22,-2.47 -4.95,-4.78 -4.53,-3.88 -5.26,-4.26 -8.72,-4.61 -2.08,-0.22 -4.71,-0.57 -5.85,-0.79 l -2.08,-0.43 -1.08,4.76 c -0.59,2.61 -0.94,4.9 -0.76,5.08 0.32,0.32 11.07,5.42 11.46,5.42 0.1,0 2.85,-0.92 6.09,-2.04 z m -175.8,0.18 c 0.22,-0.23 1.54,-3.71 2.93,-7.72 l 2.52,-7.27 -1.5,-2.44 c -0.83,-1.34 -1.86,-2.44 -2.31,-2.44 -0.44,0 -2.32,1.27 -4.18,2.82 l -3.39,2.78 -0.04,7.79 -0.04,7.82 2.8,-0.47 c 1.54,-0.25 2.99,-0.65 3.21,-0.87 z m -23.41,-7.6 c -0.67,-3.33 -1.39,-3.7 -7.4,-3.7 -4.37,0 -5.61,0.22 -5.92,1.02 -0.61,1.59 1.1,6.79 2.31,7.04 0.6,0.15 3.4,-0.35 6.24,-1.1 5.13,-1.31 5.15,-1.34 4.77,-3.26 z m -14.62,1.75 c -1.07,-4.41 -1.27,-4.61 -5.69,-5.38 -5.53,-0.95 -5.72,-0.95 -8.23,0.6 -2.08,1.27 -2.12,1.37 -1.27,3.43 0.8,1.97 1.17,2.19 4.45,2.54 1.96,0.23 5.29,0.45 7.38,0.5 l 3.79,0.1 z m 69.87,-1.47 c 0.8,-1.3 2.72,-4.71 4.28,-7.59 l 2.82,-5.28 -2.55,-5.23 -2.55,-5.25 -5.27,0.15 c -4.73,0.15 -5.4,0.32 -6.55,1.79 -1.75,2.22 -6.29,10.63 -6.3,11.65 0,0.47 1.25,3.46 2.78,6.65 l 2.77,5.8 4.56,-0.2 c 4.42,-0.18 4.6,-0.25 6.01,-2.49 z m 158.91,-0.13 c 4.07,-1.49 7.41,-2.93 7.41,-3.21 0,-0.25 -1.41,-0.77 -3.13,-1.14 -16.99,-3.66 -16.43,-3.59 -18.57,-2.49 -1.11,0.57 -1.99,1.42 -1.97,1.86 0.04,0.73 7.74,7.72 8.52,7.72 0.18,0 3.66,-1.22 7.74,-2.74 z m -33.63,-1.59 c 0.46,-1.79 0.84,-3.91 0.85,-4.73 0.01,-0.82 -1.78,-5.08 -3.96,-9.43 -3.94,-7.84 -4.01,-7.94 -6.1,-7.72 l -2.11,0.2 -0.43,5.25 c -0.42,5.06 -0.34,5.5 1.94,10.78 1.9,4.36 2.93,5.87 5.04,7.37 1.47,1.04 2.95,1.82 3.3,1.72 0.34,-0.1 1,-1.65 1.47,-3.44 z m -64.47,1.94 c 2.43,-0.6 4.74,-1.42 5.13,-1.81 0.39,-0.4 1.35,-2.44 2.12,-4.54 l 1.4,-3.78 -3.03,-6.22 c -3.31,-6.8 -2.41,-6.08 -10.57,-8.61 -0.44,-0.13 -2.59,1.09 -4.77,2.73 l -3.98,2.99 0.06,7.02 0.05,7.04 3.58,3.12 c 1.96,1.71 4.02,3.13 4.58,3.13 0.56,0 3,-0.47 5.43,-1.07 z m -111.02,-5.35 c 3.9,-5.85 4.08,-6.22 5.7,-12.2 1.85,-6.77 1.86,-8.91 0.04,-5.4 -0.75,1.45 -1.82,3.96 -2.39,5.58 -1.11,3.21 -5.26,9.88 -6.15,9.88 -0.3,0 -1.24,-1.27 -2.08,-2.79 -1.71,-3.11 -3.13,-3.58 -8.24,-2.81 l -2.84,0.42 v 2.94 c 0,3.51 0.24,3.66 6.93,3.78 4.75,0.1 4.96,0.18 4.62,1.55 -0.38,1.54 0.15,3.51 0.95,3.51 0.28,0 1.83,-2.02 3.46,-4.46 z m 87.22,1.42 c 3.93,-0.92 7.33,-1.89 7.57,-2.14 0.24,-0.23 0.54,-3.24 0.66,-6.67 l 0.23,-6.23 -6.59,-2.11 c -3.62,-1.17 -7.1,-2.14 -7.72,-2.17 -1,-0.05 -7.53,7.05 -9.07,9.84 -0.64,1.17 5.58,11.2 6.95,11.2 0.46,0 4.05,-0.77 7.97,-1.72 z m 64.47,-2.07 c 0.58,-2.09 1.19,-4.28 1.35,-4.85 0.18,-0.65 -1.72,-3.61 -4.67,-7.34 -5.32,-6.72 -4.93,-6.55 -10.03,-5.01 -1.76,0.55 -2.19,1.05 -2.51,3.06 -0.22,1.35 -0.63,3.64 -0.91,5.13 -0.62,3.29 -0.17,4.56 3.23,9.16 l 2.68,3.64 h 4.9 4.9 z m -170.65,0.5 c 1.4,-0.52 1.68,-1.07 1.68,-3.14 -0.02,-4.5 -0.55,-4.65 -6.69,-1.86 -3.02,1.37 -5.74,2.74 -6.05,3.01 -0.31,0.3 1.17,0.87 3.29,1.29 2.12,0.43 4.15,0.87 4.52,1 1.11,0.4 1.5,0.37 3.25,-0.3 z m 203.54,-3.01 c -0.54,-1.25 -1.45,-3.39 -2.02,-4.73 -0.57,-1.37 -1.58,-3.66 -2.25,-5.13 -0.66,-1.44 -1.97,-4.4 -2.91,-6.57 -2.59,-6.02 -3.18,-6.92 -5.49,-8.34 l -2.14,-1.34 v 4.3 c 0,4.04 0.31,4.96 4.66,13.74 4.22,8.52 4.82,9.41 6.26,9.24 0.87,-0.13 1.59,0.1 1.59,0.45 0,0.67 1.98,1.32 2.79,0.89 0.27,-0.12 0.05,-1.27 -0.49,-2.51 z m 33.63,0.52 c -0.81,-4.6 -0.81,-4.58 -5.96,-5.72 -4.85,-1.1 -4.92,-1.1 -9.36,0.52 -2.46,0.87 -4.47,1.99 -4.47,2.46 0,0.55 1.87,1.3 4.94,2.02 2.71,0.62 6.71,1.57 8.89,2.12 6.31,1.51 6.47,1.49 5.96,-1.4 z m -25.38,0.1 c 1.81,-0.94 3.28,-1.82 3.28,-1.92 0,-0.12 0.17,-0.64 0.37,-1.17 0.56,-1.46 -9.48,-7.61 -10.3,-6.34 -0.32,0.52 -0.59,0.72 -0.6,0.45 -0.02,-1.15 -0.15,-1.52 -0.8,-2.32 -0.5,-0.6 -0.37,-0.82 0.49,-0.82 1.61,0 9.64,-4.76 9.03,-5.35 -0.27,-0.25 -3.9,-1.12 -8.07,-1.89 -7.03,-1.32 -9.22,-2.1 -9.22,-3.27 0,-0.24 1.05,-1.66 2.32,-3.16 1.3,-1.52 2.03,-2.88 1.66,-3.11 -1.17,-0.72 -7.27,-1.19 -7.27,-0.57 0,0.32 0.45,1.24 1,2.02 0.54,0.79 1.27,2.86 1.6,4.63 0.34,1.76 1.81,5.77 3.29,8.88 1.47,3.14 2.67,5.9 2.67,6.15 0,0.97 2.96,6.6 4.2,8.02 1.65,1.89 2.34,1.86 6.35,-0.23 z m -217.5,-4.73 c 0.18,-0.57 -0.81,-0.79 -3.32,-0.79 -1.98,0 -4.97,-0.2 -6.65,-0.43 -3.93,-0.55 -3.93,0.35 0.02,2.91 l 3.06,2 3.31,-1.45 c 1.82,-0.79 3.43,-1.79 3.58,-2.24 z m 39.67,0.85 c 4.06,-3.31 4.41,-4.23 4.53,-11.65 l 0.08,-5.05 -4.12,1.64 c -2.26,0.92 -4.45,1.79 -4.86,1.99 -0.75,0.3 -2.41,5.58 -3.26,10.33 -0.4,2.29 -0.25,2.71 1.45,4.11 1.04,0.84 2.05,1.57 2.23,1.57 0.18,0.02 1.96,-1.3 3.95,-2.94 z m 20.74,-5.65 c 1.99,-3.51 3.63,-6.82 3.63,-7.32 0,-0.52 -0.61,-2.74 -1.36,-4.95 l -1.36,-4.01 -5.26,-0.47 c -4.46,-0.4 -5.45,-0.3 -6.5,0.64 -2.53,2.29 -3.31,5.18 -3.3,12.3 0,6.82 0,6.82 2.2,9.23 2.18,2.37 2.24,2.39 5.26,1.7 2.99,-0.68 3.14,-0.85 6.69,-7.12 z m -36.82,4.83 c 1.82,-4.24 3.51,-9.39 3.09,-9.39 -0.23,0 -0.95,0.5 -1.62,1.1 -2,1.81 -2.08,0.55 -0.24,-4.06 0.97,-2.41 1.64,-4.73 1.49,-5.15 -0.14,-0.43 0.15,-1.77 0.66,-2.99 0.5,-1.22 0.76,-2.36 0.57,-2.56 -0.48,-0.48 -6.26,1.19 -6.73,1.94 -0.21,0.35 0.24,1.29 1.01,2.09 0.76,0.82 1.38,1.74 1.38,2.09 0,0.32 -0.91,-0.5 -2.02,-1.87 -1.19,-1.44 -2.61,-2.46 -3.46,-2.46 -0.79,0 -4.04,1.09 -7.22,2.46 -7.25,3.09 -7.33,4.04 -0.46,5.55 2.71,0.6 5.82,1.15 6.9,1.17 1.61,0.08 2.33,0.68 3.83,3.14 2.41,3.98 1.34,5.45 -1.19,1.64 -1.88,-2.83 -3.68,-3.53 -11.7,-4.45 -3.12,-0.38 -3.6,-0.25 -5.03,1.29 l -1.57,1.7 2.52,2.81 c 1.38,1.54 2.83,3.03 3.21,3.28 0.39,0.25 3.37,0.3 6.64,0.1 l 5.93,-0.37 1.1,2.71 c 0.61,1.47 1.27,2.69 1.48,2.69 0.2,0 0.84,-1.09 1.43,-2.46 z m 132.15,0.54 c 1.29,-0.47 1.7,-1.34 2.35,-4.85 0.43,-2.34 0.78,-4.68 0.78,-5.23 0,-0.89 -9.06,-7.76 -10.23,-7.76 -0.93,0 -8.2,6.29 -8.21,7.09 0,0.47 1.19,3.21 2.64,6.1 l 2.65,5.25 h 4.23 c 2.32,0 4.93,-0.25 5.79,-0.6 z m 30.07,-1.76 c 0.14,-0.13 0.48,-2.69 0.75,-5.68 l 0.48,-5.45 -5.06,-6.25 c -2.79,-3.46 -5.55,-6.34 -6.13,-6.47 -0.59,-0.1 -2.28,0.13 -3.76,0.52 l -2.68,0.73 0.01,5.4 v 5.4 l 4.92,6.35 4.91,6.34 3.15,-0.35 c 1.73,-0.17 3.27,-0.42 3.41,-0.54 z m -86.64,-5.28 4.51,-5.65 -1.22,-4.28 c -1.41,-4.98 -1.77,-5.23 -9.34,-6.03 l -5.02,-0.54 -4.79,4.85 c -2.63,2.66 -4.79,5.25 -4.79,5.78 0,0.79 3.52,8.61 4.84,10.72 0.34,0.55 2.3,0.83 5.91,0.83 h 5.39 z m 128.03,4.21 c 3.74,-1.35 4.16,-1.7 4.53,-3.71 0.49,-2.59 0.24,-2.81 -5.43,-4.73 l -4.02,-1.35 -4.04,2.42 c -2.23,1.32 -4.04,2.61 -4.04,2.89 0,0.47 7.86,5.92 8.56,5.95 0.18,0 2.18,-0.68 4.44,-1.47 z m -223.1,-0.38 c 0,-0.3 -1.11,-1.59 -2.47,-2.91 l -2.47,-2.39 -5.26,0.57 c -2.9,0.33 -5.79,0.6 -6.43,0.6 -0.77,0.03 -1.15,0.57 -1.15,1.64 0,1.8 1.47,2.17 9.88,2.57 2.35,0.1 5.1,0.25 6.09,0.32 1,0.08 1.81,-0.12 1.81,-0.4 z m 120.91,-8.19 c 1.96,-1.54 3.57,-3.08 3.57,-3.43 0,-0.32 -0.78,-3.01 -1.74,-5.95 l -1.74,-5.35 -6.85,-1.79 c -3.76,-1 -7.21,-1.6 -7.64,-1.35 -2.51,1.49 -7.71,6.5 -7.7,7.39 0.02,0.6 0.58,2.72 1.25,4.71 l 1.23,3.61 7.15,2.44 c 3.93,1.32 7.54,2.44 8.02,2.46 0.48,0.03 2.48,-1.22 4.45,-2.74 z m -123.74,-0.32 c 2.71,-2.07 2.59,-3.46 -0.46,-4.93 -2.25,-1.07 -2.52,-1.04 -10.77,1.17 -11.01,2.94 -11.29,3.14 -7.51,5.1 1.78,0.93 3.36,1.05 9.32,0.75 6.4,-0.35 7.42,-0.57 9.42,-2.09 z m 237.18,0.03 c 4.03,-0.95 4.98,-1.42 5.76,-2.94 1.89,-3.66 1.1,-3.98 -12.4,-4.83 l -5.77,-0.35 -1.31,2.14 c -0.72,1.2 -1.31,2.49 -1.31,2.89 0,0.62 7.45,3.86 9.54,4.13 0.37,0.05 2.84,-0.42 5.49,-1.04 z m -208.79,-3.69 c 1.94,-5.23 2.24,-6.4 1.64,-6.4 -0.51,0 -4.18,8.92 -4.16,10.09 0.03,1.39 1.37,-0.58 2.52,-3.69 z m 113.37,-0.5 c 4.49,-3.73 4.52,-3.88 2.72,-10.82 -1.17,-4.51 -1.27,-4.66 -4.08,-5.7 -6.26,-2.32 -6.43,-2.3 -10.89,2.04 l -4.05,3.9 1.77,5.75 1.77,5.75 3.27,1.15 c 1.8,0.62 3.77,1.17 4.39,1.19 0.61,0.03 2.91,-1.44 5.1,-3.26 z m 22.01,2.44 2.54,-0.77 -0.01,-3.61 c -0.01,-7.54 0.42,-6.77 -6.8,-12.15 -3.67,-2.73 -7.08,-4.97 -7.59,-4.97 -1.4,0 -6.79,2.86 -6.77,3.61 0,0.37 0.68,3.16 1.51,6.19 l 1.49,5.53 4.9,3.51 c 5.13,3.66 6.4,3.98 10.73,2.66 z m -87.7,-1.32 c 0.83,-0.87 3.27,-3.41 5.42,-5.67 l 3.9,-4.08 -1.64,-5.06 -1.63,-5.05 -5,-0.2 -4.99,-0.17 -5.01,5.92 c -2.76,3.26 -5.01,6.22 -5.01,6.55 0,0.32 0.6,2.56 1.34,4.95 l 1.34,4.36 h 4.89 c 4.26,0 5.07,-0.2 6.39,-1.55 z m 115.12,-4.4 v -5.28 l -4.97,-6.25 c -4.94,-6.2 -4.98,-6.24 -7.9,-6.24 -3.35,0 -3.46,0.34 -2.29,6.52 0.54,2.83 1.54,4.5 6.02,9.98 4.53,5.52 5.67,6.55 7.26,6.55 h 1.88 z m -151.81,1.96 c 6.34,-2.54 7.85,-4.53 9.49,-12.49 0.71,-3.44 1.05,-6.5 0.76,-6.8 -1.45,-1.47 -4.01,0.23 -10.06,6.7 -4.84,5.18 -6.63,7.59 -7.46,10.08 -1.92,5.78 -1.41,5.95 7.27,2.51 z m 182.3,-0.39 c 1.16,-2.34 1.16,-2.42 -0.16,-3.84 -1.08,-1.14 -2.64,-1.57 -7.77,-2.19 l -6.42,-0.74 -2.12,2.43 c -1.16,1.35 -2.03,2.74 -1.93,3.07 0.16,0.57 13.07,3.48 15.9,3.58 0.88,0.05 1.71,-0.75 2.5,-2.31 z m -213.89,-2.92 c 2.35,-1.07 4.26,-2.16 4.25,-2.44 -0.01,-0.25 -1.14,-1.27 -2.52,-2.24 -3.48,-2.46 -10.28,-2.73 -14.51,-0.59 l -2.86,1.47 1.81,1.89 c 2.26,2.36 6.83,4.63 8.4,4.18 0.65,-0.2 3.09,-1.22 5.43,-2.27 z m 14.8,-4 c 3.44,-0.73 4.21,-1.15 5.38,-3.04 0.98,-1.59 1.17,-2.44 0.66,-2.94 -0.94,-0.94 -6.04,-1.74 -11.31,-1.77 -3.88,-0.02 -4.49,0.18 -6.54,2.05 l -2.27,2.06 2.59,2.17 c 2.43,2.04 4.85,2.93 6.69,2.49 0.43,-0.1 2.6,-0.58 4.8,-1.02 z m 38.88,-0.73 c 0.77,-0.82 3.05,-3.48 5.07,-5.97 l 3.68,-4.48 -1.87,-3.91 c -1.03,-2.14 -2.01,-3.91 -2.18,-3.91 -1.09,0 -13.85,6.7 -14.13,7.42 -0.18,0.5 -0.71,3.21 -1.16,6.03 -0.99,6.12 -0.86,6.29 5.11,6.29 3.4,0 4.33,-0.25 5.48,-1.47 z m 42.7,-1.79 c 2.17,-1.79 4.09,-3.51 4.26,-3.81 0.5,-0.79 -1.6,-10.3 -2.38,-10.8 -0.37,-0.22 -3.11,-0.95 -6.08,-1.57 l -5.4,-1.12 -5.2,4.11 c -2.86,2.26 -5.3,4.41 -5.43,4.73 -0.4,1.04 2.69,9.86 3.57,10.2 0.8,0.3 8.31,1.27 11.28,1.45 0.86,0.05 3.05,-1.25 5.38,-3.19 z m -65.57,-4.85 c 8.17,-8.89 9.59,-11.63 5.41,-10.58 -2.06,0.5 -10.82,10.43 -11.87,13.44 -0.36,1.02 -0.88,2.09 -1.15,2.37 -0.69,0.67 -0.62,2.24 0.11,2.24 0.33,0 3.7,-3.37 7.5,-7.47 z m 156.54,7.12 c 0,-1.62 -7.79,-12.7 -11.96,-17 l -5.16,-5.38 2.8,5.05 c 2.76,4.98 3.64,6.23 9.9,13.84 2.75,3.36 4.42,4.66 4.42,3.49 z m 28.75,-2.67 c 1.94,-1.66 3.52,-3.38 3.52,-3.85 0,-2.82 -7.45,-4.93 -13.09,-3.69 -5.67,1.27 -6,1.57 -6,5.3 0,3.59 -0.38,3.34 6.25,4.51 5.32,0.97 5.62,0.9 9.32,-2.27 z m -50.89,0.4 c 1.14,0 1.2,-0.4 0.78,-4.7 -0.26,-2.57 -0.61,-5.06 -0.79,-5.53 -0.18,-0.47 -2.73,-2.69 -5.67,-4.95 l -5.35,-4.08 -4.95,1.09 c -2.73,0.6 -5.08,1.2 -5.22,1.35 -0.15,0.14 0.09,1.79 0.54,3.63 0.77,3.24 1.09,3.58 7.81,8.66 6.39,4.81 7.21,5.25 9.31,4.91 1.27,-0.2 2.86,-0.38 3.54,-0.38 z m 33.7,-2.31 c 0.25,-1.62 0.29,-3.36 0.1,-3.86 -0.19,-0.47 -2.11,-1.27 -4.26,-1.72 -3.59,-0.77 -4.19,-0.72 -7,0.52 l -3.08,1.37 1.57,2.49 c 1.46,2.34 1.9,2.57 6.12,3.26 2.5,0.4 4.89,0.77 5.33,0.82 0.44,0.03 0.97,-1.21 1.22,-2.88 z m -78.43,-2.29 3.89,-3.94 -3.27,-3.48 c -1.79,-1.92 -4.03,-4.33 -4.98,-5.35 l -1.73,-1.89 -6.37,2.11 c -3.51,1.17 -6.54,2.54 -6.73,3.04 -0.43,1.14 0.87,8.86 1.62,9.61 0.46,0.44 10.86,3.43 13.01,3.73 0.37,0.05 2.42,-1.67 4.56,-3.83 z m -119.02,0.62 c 1.18,-1.07 2.14,-2.07 2.14,-2.24 0,-0.42 -5.89,-4.33 -6.53,-4.33 -0.81,0 -7.95,3.23 -7.95,3.58 0,0.18 0.49,1.37 1.1,2.64 1.1,2.29 1.18,2.34 5.11,2.32 3.49,-0.03 4.26,-0.28 6.13,-1.97 z m 24.69,-5.75 c 1.72,-2.41 2.87,-4.66 2.56,-4.95 -0.48,-0.48 -8.63,0.99 -9.95,1.81 -0.74,0.45 0.52,6.43 1.48,7.05 1.73,1.09 2.9,0.32 5.91,-3.91 z m 113.46,1.84 c 3.09,-1.74 3.28,-1.99 3.14,-4.28 -0.27,-4.28 -1.45,-5.58 -9.77,-10.65 l -7.95,-4.83 -3.86,0.62 c -2.12,0.35 -4.08,0.87 -4.35,1.14 -0.27,0.28 -0.69,1.62 -0.94,2.94 -0.43,2.37 -0.28,2.62 5.08,8.17 5.02,5.17 5.95,5.85 10.11,7.21 2.52,0.83 4.73,1.5 4.91,1.52 0.18,0 1.81,-0.82 3.63,-1.84 z m -122.59,-1.52 c -0.55,-3.63 -0.88,-3.98 -5.07,-5.42 -2.96,-1 -4.33,-1.1 -8.41,-0.6 -4.2,0.52 -4.9,0.8 -5.07,1.97 -0.15,1.02 0.7,1.96 3.38,3.73 3.57,2.39 5.09,2.74 12.46,3.01 l 3.14,0.13 z m 169.89,0.45 c 1.69,-0.6 3.07,-1.24 3.06,-1.49 -0.08,-1.57 -2.07,-2.62 -5.76,-3.04 -3.47,-0.42 -4.1,-0.32 -4.1,0.52 0,0.58 0.4,1.27 0.89,1.57 0.49,0.28 1.24,1.2 1.67,1.99 0.92,1.77 0.47,1.72 4.24,0.45 z m 18.83,-0.65 c 3.28,-0.97 3.44,-1.12 3.02,-2.78 -0.5,-2.02 -1.51,-3.44 -2.44,-3.44 -0.35,0 -2.86,-0.87 -5.57,-1.97 -2.71,-1.09 -5.17,-1.96 -5.46,-1.96 -0.3,0 -1.65,1.34 -3.01,3.01 l -2.47,3.01 1.31,1.77 c 2.37,3.16 8.55,4.16 14.62,2.36 z m -125.86,-4.35 c 5.72,-4.48 6.03,-5.13 4.7,-9.93 l -0.69,-2.47 h -7.72 -7.73 l -4.22,4.26 -4.22,4.25 1.6,3.44 c 0.89,1.89 1.92,3.76 2.31,4.13 0.4,0.4 2.85,0.67 5.68,0.6 l 4.98,-0.13 z m -29.15,-0.82 c 5.88,-2.92 8.04,-4.43 11.73,-8.17 l 4.52,-4.58 -0.79,-2.39 c -0.89,-2.71 -0.93,-2.71 -5.55,-1.37 -2.59,0.75 -5.22,2.47 -10.64,6.97 -3.97,3.29 -7.42,6.18 -7.67,6.42 -0.25,0.23 -0.93,1.55 -1.5,2.92 -1.01,2.41 -1,2.49 0.46,3.08 0.83,0.33 1.66,0.63 1.86,0.65 0.2,0.03 3.61,-1.57 7.58,-3.53 z m 121.36,2.41 c -3.5,-7.69 -5.33,-10.16 -9.7,-13.04 -4.38,-2.91 -4.61,-2.99 -7.23,-2.29 -1.49,0.4 -2.7,0.94 -2.68,1.19 0.01,0.28 0.68,1.72 1.48,3.24 0.93,1.77 3.43,4.3 6.94,7.07 4.92,3.88 5.8,4.33 8.45,4.33 1.63,0 2.86,-0.23 2.74,-0.5 z m -149.7,-3.24 c 4.4,-0.97 4.96,-1.24 4.79,-2.46 -0.23,-1.62 -4.05,-3.14 -8.1,-3.24 -2.94,-0.05 -7.9,2.07 -7.9,3.39 0,0.72 4.22,3.19 5.74,3.36 0.26,0.03 2.72,-0.45 5.47,-1.05 z m 168.25,-1.84 c 1.22,-1.27 2.08,-2.44 1.91,-2.61 -0.3,-0.3 -14.87,-2.34 -16.73,-2.34 -0.52,0 -1.27,0.62 -1.67,1.37 -0.61,1.14 -0.48,1.67 0.8,3.04 2.14,2.31 3.5,2.73 8.82,2.78 4.46,0.05 4.73,-0.05 6.87,-2.24 z m -156.5,-1.99 c 1.72,-1.99 2.97,-3.63 2.78,-3.63 -0.19,0 -1.99,0.72 -3.99,1.62 -2.95,1.29 -3.64,1.91 -3.64,3.18 0,1.54 0.48,2.44 1.3,2.44 0.23,0 1.83,-1.62 3.55,-3.61 z m 72.97,0.82 c 6.45,-2.11 6.53,-2.16 7.21,-4.7 0.37,-1.4 0.44,-2.79 0.14,-3.09 -0.3,-0.27 -3.51,-1.54 -7.13,-2.81 -3.62,-1.25 -7.32,-2.57 -8.23,-2.91 -1.37,-0.55 -2.62,-0.15 -7.47,2.26 -5.09,2.57 -5.78,3.11 -5.48,4.38 0.19,0.77 0.55,2.52 0.78,3.86 0.43,2.34 0.57,2.44 5.15,3.73 6.42,1.8 7.54,1.75 15.03,-0.72 z m -59,-6.67 c 4.78,-4.03 6.74,-6.07 6.27,-6.54 -0.47,-0.45 -1.76,0.1 -4.16,1.79 -1.91,1.34 -4.99,3.53 -6.84,4.83 -2.99,2.11 -6.19,5.72 -6.19,6.97 0,1.22 4.66,-1.8 10.92,-7.05 z m 100.39,5.48 c 4.87,-1.07 4.76,-0.92 3.16,-4.21 -1.26,-2.61 -2.06,-3.28 -6.29,-5.33 -4.71,-2.26 -5.06,-2.31 -11.57,-2.14 -6.56,0.18 -6.71,0.23 -6.71,1.75 0,1.27 1.34,2.36 7.55,6.1 7.79,4.67 8.83,4.95 13.86,3.83 z m -115.03,-3.81 c 1.68,-0.75 3.07,-1.62 3.07,-1.94 0,-0.35 -2.24,-1.55 -4.97,-2.69 -5.19,-2.19 -5.26,-2.19 -11.66,-0.32 -1.19,0.34 -1.59,3.16 -0.65,4.6 0.66,1.05 5.89,2.19 8.77,1.92 1.3,-0.1 3.75,-0.82 5.44,-1.57 z m 139.72,0.17 c 0,-0.97 -0.55,-1.32 -2.3,-1.49 l -2.31,-0.2 1.61,1.69 c 1.79,1.92 3,1.92 3,-0.02 z m -130.91,-3.31 c 1.23,-0.94 2.1,-1.84 1.93,-2.01 -0.47,-0.48 -5.7,2.36 -5.7,3.08 0,1.12 1.44,0.7 3.77,-1.07 z m 47.79,-4.38 5.79,-2.79 -0.19,-2.63 -0.19,-2.64 -8.56,-0.18 -8.56,-0.15 -5.27,2.89 c -2.9,1.57 -5.36,3.31 -5.46,3.83 -0.11,0.53 0.11,1.75 0.47,2.72 l 0.67,1.77 h 7.76 7.75 z m 32.41,2.24 c 1.51,-0.32 2,-0.82 2.08,-2.06 0.17,-2.67 -7.83,-9.71 -12.35,-10.88 -3.22,-0.87 -3.9,-0.82 -8.47,0.47 -6.2,1.74 -7.02,2.42 -6.23,5.13 0.57,1.94 1.13,2.24 8.83,4.93 8.1,2.81 11.67,3.36 16.14,2.41 z m 31.01,-0.1 c 2.37,0 0.31,-1.99 -6.32,-6.12 -5.72,-3.59 -7.63,-4.46 -9.33,-4.28 l -2.15,0.2 3.14,2.96 c 3.46,3.29 11.47,7.97 12.85,7.54 0.48,-0.17 1.29,-0.3 1.81,-0.3 z m -91.35,-4.7 c 4.85,-1.17 16.54,-7.67 16.54,-9.19 0,-0.69 -0.22,-1.24 -0.49,-1.24 -1.84,0.07 -6.58,1.54 -7.45,2.34 -0.58,0.52 -3.55,2.02 -6.6,3.33 -6.76,2.94 -8.76,4.34 -7.67,5.43 0.43,0.42 1.19,0.62 1.7,0.42 0.51,-0.2 2.3,-0.69 3.97,-1.09 z m -7.05,-2.04 c 2.38,-1.55 4.89,-3.16 5.57,-3.59 2.53,-1.62 -1.62,-0.92 -7.02,1.17 -5.29,2.04 -5.58,2.27 -4.85,4.18 0.6,1.57 1.56,1.3 6.3,-1.76 z m 80.43,2.24 3.16,-0.43 -2.88,-2.83 c -2.88,-2.82 -2.88,-2.82 -9.41,-3.39 -3.6,-0.3 -6.78,-0.4 -7.07,-0.22 -0.52,0.3 0.29,1.14 5.03,5.27 2.63,2.29 4.34,2.54 11.17,1.6 z m -33.13,-9.21 c 2.88,-0.75 4.29,-1.42 4.29,-2.09 0,-0.82 -1.59,-1 -9.88,-1.1 -12.28,-0.15 -14.76,0.18 -15.46,2.02 -0.29,0.77 -0.39,1.62 -0.23,1.89 0.57,0.97 16.85,0.42 21.28,-0.72 z"
       transform="matrix(1,0,0,1.00135,2194.78,-4737.87)"
       id="path9"
       inkscape:connector-curvature="0" /><path
       d="m -1687.22,4957.08 6.65,4.01 -0.73,6.37 8.9,6.77 -5.63,4.18 1.88,5.58 16.83,1.22 2.06,2.54 0.36,4.7 -3.39,2.07 1.58,9.81 10.35,1.81 6.78,9.04 7.94,0.67 15.98,8.22 0.97,1.81 18.05,8.37 9.38,-3.76 20.89,4.43 19.62,-5.88 4.79,2 1.15,1.69 13.8,3.21 6.42,-3.39 10.66,0.48 6.42,-7.7 12.23,1.1 21.86,-7.82 11.39,-1.07 2.66,-1.46 -3.81,-9.02 5.67,-2.88 15.94,4.2 5.76,-2.59 -0.49,-6.29 4.48,-3.76 -1.01,-5.25 -10.11,-3.14 0.35,-3.54 15.76,-5.99 1.63,-1.47 0.08,-5.3 -0.86,-2.39 -9.67,-2.92 -0.35,-5.99 9.85,-2.92 3.69,-4.28 -2.33,-2.41 -17.91,-0.9 -3.77,-4.31 7.99,-7.64 1.67,9.96 13.92,2.49 0.81,2.94 0.19,10.43 -1.86,5.37 c 0,0 2.05,10.28 1.97,11.55 -0.08,1.3 -6.68,4.56 -6.68,4.56 l -4.28,4 3.85,8.49 0.17,5.06 -3.25,2.21 v 7.37 l -9.93,3.78 -13.02,-2.41 -0.86,8.74 -19.18,4.28 -13.7,5.65 -6.68,1.71 -10.96,-0.84 -4.8,7.54 h -14.04 l -11.99,2.91 -13.53,-2.24 -4.46,-1.02 -17.47,4.63 -20.55,-4.28 -11.99,4.28 -19.69,-9.26 -1.2,-2.21 -13.19,-8.07 -7.88,-0.84 -9.42,-12.18 -8.74,0.18 -2.91,-12.85 0.52,-8.04 -9.43,-0.17 -6.33,-8.39 -0.52,-6 -3.76,-4.45 0.17,-7.72 -4.28,-0.18 z"
       transform="matrix(1,0,0,1.00135,2194.78,-4737.87)"
       id="path11"
       inkscape:connector-curvature="0"
       style="fill:#1caf00;fill-opacity:0.36078401;stroke:#000000;stroke-width:1.40638995" /><path
       d="m -1685.51,4964.45 4.94,-3.36"
       transform="matrix(1,0,0,1.00135,2194.78,-4737.87)"
       id="path13"
       inkscape:connector-curvature="0"
       style="fill:none;stroke:#000000;stroke-width:0.65859503" /><path
       d="m -1685.68,4972.17 4.38,-4.71"
       transform="matrix(1,0,0,1.00135,2194.78,-4737.87)"
       id="path15"
       inkscape:connector-curvature="0"
       style="fill:none;stroke:#000000;stroke-width:0.65859503" /><path
       d="m -1681.92,4976.62 9.52,-2.39"
       transform="matrix(1,0,0,1.00135,2194.78,-4737.87)"
       id="path17"
       inkscape:connector-curvature="0"
       style="fill:none;stroke:#000000;stroke-width:0.65859503" /><path
       d="m -1678.03,4978.41 -3.37,4.21"
       transform="matrix(1,0,0,1.00135,2194.78,-4737.87)"
       id="path19"
       inkscape:connector-curvature="0"
       style="fill:none;stroke:#000000;stroke-width:0.65859503" /><path
       d="m -1676.15,4983.99 1.08,7.02"
       transform="matrix(1,0,0,1.00135,2194.78,-4737.87)"
       id="path21"
       inkscape:connector-curvature="0"
       style="fill:none;stroke:#000000;stroke-width:0.65859503" /><path
       d="m -1659.32,4985.21 -6.32,5.97"
       transform="matrix(1,0,0,1.00135,2194.78,-4737.87)"
       id="path23"
       inkscape:connector-curvature="0"
       style="fill:none;stroke:#000000;stroke-width:0.65859503" /><path
       d="m -1656.9,4992.45 -9.26,6.77"
       transform="matrix(1,0,0,1.00135,2194.78,-4737.87)"
       id="path25"
       inkscape:connector-curvature="0"
       style="fill:none;stroke:#000000;stroke-width:0.65859503" /><path
       d="m -1658.71,5004.33 -4.54,7.74"
       transform="matrix(1,0,0,1.00135,2194.78,-4737.87)"
       id="path27"
       inkscape:connector-curvature="0"
       style="fill:none;stroke:#000000;stroke-width:0.65859503" /><path
       d="m -1648.36,5006.14 -6.15,5.75"
       transform="matrix(1,0,0,1.00135,2194.78,-4737.87)"
       id="path29"
       inkscape:connector-curvature="0"
       style="fill:none;stroke:#000000;stroke-width:0.65859503" /><path
       d="m -1641.58,5015.18 -3.51,8.89"
       transform="matrix(1,0,0,1.00135,2194.78,-4737.87)"
       id="path31"
       inkscape:connector-curvature="0"
       style="fill:none;stroke:#000000;stroke-width:0.65859503" /><path
       d="m -1633.64,5015.85 -3.57,9.06"
       transform="matrix(1,0,0,1.00135,2194.78,-4737.87)"
       id="path33"
       inkscape:connector-curvature="0"
       style="fill:none;stroke:#000000;stroke-width:0.65859503" /><path
       d="m -1617.66,5024.07 -6.36,8.91"
       transform="matrix(1,0,0,1.00135,2194.78,-4737.87)"
       id="path35"
       inkscape:connector-curvature="0"
       style="fill:none;stroke:#000000;stroke-width:0.65859503" /><path
       d="m -1598.64,5034.25 -4.49,10.2"
       transform="matrix(1,0,0,1.00135,2194.78,-4737.87)"
       id="path37"
       inkscape:connector-curvature="0"
       style="fill:none;stroke:#000000;stroke-width:0.65859503" /><path
       d="m -1589.26,5030.49 -1.88,9.68"
       transform="matrix(1,0,0,1.00135,2194.78,-4737.87)"
       id="path39"
       inkscape:connector-curvature="0"
       style="fill:none;stroke:#000000;stroke-width:0.65859503" /><path
       d="m -1568.37,5034.92 -2.22,9.53"
       transform="matrix(1,0,0,1.00135,2194.78,-4737.87)"
       id="path41"
       inkscape:connector-curvature="0"
       style="fill:none;stroke:#000000;stroke-width:0.65859503" /><path
       d="m -1550.72,5029.89 -2.4,9.93"
       transform="matrix(1,0,0,1.00135,2194.78,-4737.87)"
       id="path43"
       inkscape:connector-curvature="0"
       style="fill:none;stroke:#000000;stroke-width:0.65859503" /><path
       d="m -1543.96,5031.04 -4.7,9.8"
       transform="matrix(1,0,0,1.00135,2194.78,-4737.87)"
       id="path45"
       inkscape:connector-curvature="0"
       style="fill:none;stroke:#000000;stroke-width:0.65859503" /><path
       d="m -1529.01,5035.94 -6.12,7.14"
       transform="matrix(1,0,0,1.00135,2194.78,-4737.87)"
       id="path47"
       inkscape:connector-curvature="0"
       style="fill:none;stroke:#000000;stroke-width:0.65859503" /><path
       d="m -1522.59,5032.55 -0.55,7.62"
       transform="matrix(1,0,0,1.00135,2194.78,-4737.87)"
       id="path49"
       inkscape:connector-curvature="0"
       style="fill:none;stroke:#000000;stroke-width:0.65859503" /><path
       d="m -1511.93,5033.03 2.83,7.14"
       transform="matrix(1,0,0,1.00135,2194.78,-4737.87)"
       id="path51"
       inkscape:connector-curvature="0"
       style="fill:none;stroke:#000000;stroke-width:0.65859503" /><path
       d="m -1505.51,5025.33 1.21,7.3"
       transform="matrix(1,0,0,1.00135,2194.78,-4737.87)"
       id="path53"
       inkscape:connector-curvature="0"
       style="fill:none;stroke:#000000;stroke-width:0.65859503" /><path
       d="m -1480.55,5021.55 2.77,8.17"
       transform="matrix(1,0,0,1.00135,2194.78,-4737.87)"
       id="path55"
       inkscape:connector-curvature="0"
       style="fill:none;stroke:#000000;stroke-width:0.65859503" /><path
       d="m -1471.42,5018.61 5.27,6"
       transform="matrix(1,0,0,1.00135,2194.78,-4737.87)"
       id="path57"
       inkscape:connector-curvature="0"
       style="fill:none;stroke:#000000;stroke-width:0.65859503" /><path
       d="m -1457.37,5016.08 3.59,5.75"
       transform="matrix(1,0,0,1.00135,2194.78,-4737.87)"
       id="path59"
       inkscape:connector-curvature="0"
       style="fill:none;stroke:#000000;stroke-width:0.65859503" /><path
       d="m -1455.51,5004.18 2.59,8.91"
       transform="matrix(1,0,0,1.00135,2194.78,-4737.87)"
       id="path61"
       inkscape:connector-curvature="0"
       style="fill:none;stroke:#000000;stroke-width:0.65859503" /><path
       d="m -1439.57,5008.38 -0.33,7.12"
       transform="matrix(1,0,0,1.00135,2194.78,-4737.87)"
       id="path63"
       inkscape:connector-curvature="0"
       style="fill:none;stroke:#000000;stroke-width:0.65859503" /><path
       d="m -1433.81,5005.79 3.84,5.93"
       transform="matrix(1,0,0,1.00135,2194.78,-4737.87)"
       id="path65"
       inkscape:connector-curvature="0"
       style="fill:none;stroke:#000000;stroke-width:0.65859503" /><path
       d="m -1429.82,4995.74 3.1,6.4"
       transform="matrix(1,0,0,1.00135,2194.78,-4737.87)"
       id="path67"
       inkscape:connector-curvature="0"
       style="fill:none;stroke:#000000;stroke-width:0.65859503" /><path
       d="m -1440.59,4983.81 9.85,4.78"
       transform="matrix(1,0,0,1.00135,2194.78,-4737.87)"
       id="path69"
       inkscape:connector-curvature="0"
       style="fill:none;stroke:#000000;stroke-width:0.65859503" /><path
       d="m -1424.83,4977.82 5.43,2.96"
       transform="matrix(1,0,0,1.00135,2194.78,-4737.87)"
       id="path71"
       inkscape:connector-curvature="0"
       style="fill:none;stroke:#000000;stroke-width:0.65859503" /><path
       d="m -1434,4959.75 12.25,8.73"
       transform="matrix(1,0,0,1.00135,2194.78,-4737.87)"
       id="path73"
       inkscape:connector-curvature="0"
       style="fill:none;stroke:#000000;stroke-width:0.65859503" /></g></svg>